<svg xmlns="http://www.w3.org/2000/svg" xmlns:xlink="http://www.w3.org/1999/xlink" contentStyleType="text/css" data-diagram-type="STATE" height="1013px" preserveAspectRatio="none" style="width:1431px;height:1013px;background:#FFFFFF;" version="1.1" viewBox="0 0 1431 1013" width="1431px" zoomAndPan="magnify"><defs/><g><!--cluster Initializing--><g class="cluster" data-entity="Initializing" data-source-line="3" data-uid="ent0002" id="cluster_Initializing"><path d="M19.5,81 L413.5,81 A12.5,12.5 0 0 1 426,93.5 L426,102.2969 L7,102.2969 L7,93.5 A12.5,12.5 0 0 1 19.5,81" fill="#F1F1F1"/><rect fill="none" height="644" rx="12.5" ry="12.5" style="stroke:#181818;stroke-width:0.5;" width="419" x="7" y="81"/><line style="stroke:#181818;stroke-width:0.5;" x1="7" x2="426" y1="102.2969" y2="102.2969"/><text fill="#000000" font-family="sans-serif" font-size="14" lengthAdjust="spacing" textLength="71.627" x="180.6865" y="97.9951">Initializing</text></g><!--cluster Gaming--><g class="cluster" data-entity="Gaming" data-source-line="13" data-uid="ent0003" id="cluster_Gaming"><path d="M759.5,453 L1268.5,453 A12.5,12.5 0 0 1 1281,465.5 L1281,474.2969 L747,474.2969 L747,465.5 A12.5,12.5 0 0 1 759.5,453" fill="#F1F1F1"/><rect fill="none" height="554" rx="12.5" ry="12.5" style="stroke:#181818;stroke-width:0.5;" width="534" x="747" y="453"/><line style="stroke:#181818;stroke-width:0.5;" x1="747" x2="1281" y1="474.2969" y2="474.2969"/><text fill="#000000" font-family="sans-serif" font-size="14" lengthAdjust="spacing" textLength="54.7148" x="986.6426" y="469.9951">Gaming</text></g><ellipse cx="173" cy="134" fill="#222222" rx="10" ry="10" style="stroke:#222222;stroke-width:1;"/><g id="Initializing.CheckingURL"><rect fill="#F1F1F1" height="50" rx="12.5" ry="12.5" style="stroke:#181818;stroke-width:0.5;" width="112.4902" x="117" y="205"/><line style="stroke:#181818;stroke-width:0.5;" x1="117" x2="229.4902" y1="231.2969" y2="231.2969"/><text fill="#000000" font-family="sans-serif" font-size="14" lengthAdjust="spacing" textLength="92.4902" x="127" y="222.9951">CheckingURL</text></g><g id="Initializing.LoadingFromURL"><rect fill="#F1F1F1" height="50" rx="12.5" ry="12.5" style="stroke:#181818;stroke-width:0.5;" width="139.2666" x="222.5" y="332"/><line style="stroke:#181818;stroke-width:0.5;" x1="222.5" x2="361.7666" y1="358.2969" y2="358.2969"/><text fill="#000000" font-family="sans-serif" font-size="14" lengthAdjust="spacing" textLength="119.2666" x="232.5" y="349.9951">LoadingFromURL</text></g><g id="Initializing.Welcome"><rect fill="#F1F1F1" height="50" rx="12.5" ry="12.5" style="stroke:#181818;stroke-width:0.5;" width="84.8594" x="31.5" y="332"/><line style="stroke:#181818;stroke-width:0.5;" x1="31.5" x2="116.3594" y1="358.2969" y2="358.2969"/><text fill="#000000" font-family="sans-serif" font-size="14" lengthAdjust="spacing" textLength="64.8594" x="41.5" y="349.9951">Welcome</text></g><g id="Initializing.CustomInput"><rect fill="#F1F1F1" height="50" rx="12.5" ry="12.5" style="stroke:#181818;stroke-width:0.5;" width="109.8857" x="157" y="651"/><line style="stroke:#181818;stroke-width:0.5;" x1="157" x2="266.8857" y1="677.2969" y2="677.2969"/><text fill="#000000" font-family="sans-serif" font-size="14" lengthAdjust="spacing" textLength="89.8857" x="167" y="668.9951">CustomInput</text></g><path d="M811,496 L1077.4961,496 A12.5,12.5 0 0 1 1089.9961,508.5 L1089.9961,625.0781 L798.5,625.0781 L798.5,508.5 A12.5,12.5 0 0 1 811,496" fill="#F1F1F1"/><rect fill="none" height="360.3438" rx="12.5" ry="12.5" style="stroke:#181818;stroke-width:0.5;" width="291.4961" x="798.5" y="496"/><line style="stroke:#181818;stroke-width:0.5;" x1="798.5" x2="1089.9961" y1="625.0781" y2="625.0781"/><line style="stroke:#181818;stroke-width:0.5;" x1="798.5" x2="1089.9961" y1="522.2969" y2="522.2969"/><text fill="#000000" font-family="sans-serif" font-size="14" lengthAdjust="spacing" textLength="43.5518" x="922.4722" y="513.9951">Active</text><text fill="#000000" font-family="sans-serif" font-size="12" lengthAdjust="spacing" textLength="228.4863" x="803.5" y="533.4355">handleKey(number) [In NumberMode]</text><text fill="#000000" font-family="sans-serif" font-size="12" lengthAdjust="spacing" textLength="266.4961" x="803.5" y="547.4043">candidates.add(pos, number) [In NoteMode]</text><text fill="#000000" font-family="sans-serif" font-size="12" lengthAdjust="spacing" textLength="74.9297" x="803.5" y="561.373">handleHint()</text><text fill="#000000" font-family="sans-serif" font-size="12" lengthAdjust="spacing" textLength="84.2227" x="803.5" y="575.3418">handleLearn()</text><text fill="#000000" font-family="sans-serif" font-size="12" lengthAdjust="spacing" textLength="131.1152" x="803.5" y="589.3105">handleBackTracking()</text><text fill="#000000" font-family="sans-serif" font-size="12" lengthAdjust="spacing" textLength="81.6094" x="803.5" y="603.2793">handleUndo()</text><text fill="#000000" font-family="sans-serif" font-size="12" lengthAdjust="spacing" textLength="80.9414" x="803.5" y="617.248">handleRedo()</text><g id="Gaming.Active.NumberMode"><rect fill="#F1F1F1" height="50.2656" rx="12.5" ry="12.5" style="stroke:#181818;stroke-width:0.5;" width="233.2871" x="810.5" y="693.0781"/><line style="stroke:#181818;stroke-width:0.5;" x1="810.5" x2="1043.7871" y1="719.375" y2="719.375"/><text fill="#000000" font-family="sans-serif" font-size="14" lengthAdjust="spacing" textLength="94.3838" x="879.9517" y="711.0732">NumberMode</text><text fill="#000000" font-family="sans-serif" font-size="12" lengthAdjust="spacing" textLength="213.2871" x="815.5" y="735.5137">Default mode for entering numbers</text></g><g id="Gaming.Active.NoteMode"><rect fill="#F1F1F1" height="50.2656" rx="12.5" ry="12.5" style="stroke:#181818;stroke-width:0.5;" width="218.4512" x="818" y="796.0781"/><line style="stroke:#181818;stroke-width:0.5;" x1="818" x2="1036.4512" y1="822.375" y2="822.375"/><text fill="#000000" font-family="sans-serif" font-size="14" lengthAdjust="spacing" textLength="71.2852" x="891.583" y="814.0732">NoteMode</text><text fill="#000000" font-family="sans-serif" font-size="12" lengthAdjust="spacing" textLength="198.4512" x="823" y="838.5137">Mode for adding candidate notes</text></g><ellipse cx="927" cy="646.0781" fill="#222222" rx="10" ry="10" style="stroke:#222222;stroke-width:1;"/><!--link *start*Active to NumberMode--><g class="link" data-entity-1="*start*Active" data-entity-2="NumberMode" data-source-line="15" data-uid="lnk17" id="link_*start*Active_NumberMode"><path d="M927,656.2281 C927,665.4981 927,674.2181 927,686.8581" fill="none" id="*start*Active-to-NumberMode" style="stroke:#181818;stroke-width:1;"/><polygon fill="#181818" points="927,692.8581,931,683.8581,927,687.8581,923,683.8581,927,692.8581" style="stroke:#181818;stroke-width:1;"/></g><!--link NumberMode to NoteMode--><g class="link" data-entity-1="NumberMode" data-entity-2="NoteMode" data-source-line="16" data-uid="lnk18" id="link_NumberMode_NoteMode"><path d="M884.33,743.1581 C878.55,748.3081 873.44,754.2781 870,761.0781 C863.38,774.1681 866.6963,782.4543 878.5463,792.2543" fill="none" id="NumberMode-to-NoteMode" style="stroke:#181818;stroke-width:1;"/><polygon fill="#181818" points="883.17,796.0781,878.7837,787.26,879.3169,792.8916,873.6853,793.4249,883.17,796.0781" style="stroke:#181818;stroke-width:1;"/><text fill="#000000" font-family="sans-serif" font-size="13" lengthAdjust="spacing" textLength="91.5015" x="871" y="774.145">notes.toggle()</text></g><!--link NoteMode to NumberMode--><g class="link" data-entity-1="NoteMode" data-entity-2="NumberMode" data-source-line="17" data-uid="lnk19" id="link_NoteMode_NumberMode"><path d="M953.69,795.9081 C961.79,785.6281 967.5,773.2281 963,761.0781 C960.67,754.7681 960.6188,753.5024 956.3988,748.1124" fill="none" id="NoteMode-to-NumberMode" style="stroke:#181818;stroke-width:1;"/><polygon fill="#181818" points="952.7,743.3881,955.0987,752.9404,955.7823,747.325,961.3977,748.0087,952.7,743.3881" style="stroke:#181818;stroke-width:1;"/><text fill="#000000" font-family="sans-serif" font-size="13" lengthAdjust="spacing" textLength="91.5015" x="965" y="774.145">notes.toggle()</text></g><g id="Gaming.Paused"><rect fill="#F1F1F1" height="50" rx="12.5" ry="12.5" style="stroke:#181818;stroke-width:0.5;" width="70.6885" x="844.5" y="933"/><line style="stroke:#181818;stroke-width:0.5;" x1="844.5" x2="915.1885" y1="959.2969" y2="959.2969"/><text fill="#000000" font-family="sans-serif" font-size="14" lengthAdjust="spacing" textLength="50.6885" x="854.5" y="950.9951">Paused</text></g><g id="Gaming.GameWon"><rect fill="#F1F1F1" height="50" rx="12.5" ry="12.5" style="stroke:#181818;stroke-width:0.5;" width="92.96" x="1100.5" y="933"/><line style="stroke:#181818;stroke-width:0.5;" x1="1100.5" x2="1193.46" y1="959.2969" y2="959.2969"/><text fill="#000000" font-family="sans-serif" font-size="14" lengthAdjust="spacing" textLength="72.96" x="1110.5" y="950.9951">GameWon</text></g><ellipse cx="418" cy="16" fill="#222222" rx="10" ry="10" style="stroke:#222222;stroke-width:1;"/><g id="Settings"><rect fill="#F1F1F1" height="50" rx="12.5" ry="12.5" style="stroke:#181818;stroke-width:0.5;" width="77.4219" x="588.5" y="332"/><line style="stroke:#181818;stroke-width:0.5;" x1="588.5" x2="665.9219" y1="358.2969" y2="358.2969"/><text fill="#000000" font-family="sans-serif" font-size="14" lengthAdjust="spacing" textLength="57.4219" x="598.5" y="349.9951">Settings</text></g><g id="Share"><rect fill="#F1F1F1" height="50" rx="12.5" ry="12.5" style="stroke:#181818;stroke-width:0.5;" width="60.708" x="814.5" y="332"/><line style="stroke:#181818;stroke-width:0.5;" x1="814.5" x2="875.208" y1="358.2969" y2="358.2969"/><text fill="#000000" font-family="sans-serif" font-size="14" lengthAdjust="spacing" textLength="40.708" x="824.5" y="349.9951">Share</text></g><g id="ConfirmNewGame"><rect fill="#F1F1F1" height="50" rx="12.5" ry="12.5" style="stroke:#181818;stroke-width:0.5;" width="147.6406" x="946" y="332"/><line style="stroke:#181818;stroke-width:0.5;" x1="946" x2="1093.6406" y1="358.2969" y2="358.2969"/><text fill="#000000" font-family="sans-serif" font-size="14" lengthAdjust="spacing" textLength="127.6406" x="956" y="349.9951">ConfirmNewGame</text></g><g id="GameOver"><rect fill="#F1F1F1" height="50" rx="12.5" ry="12.5" style="stroke:#181818;stroke-width:0.5;" width="95.3525" x="1169.5" y="332"/><line style="stroke:#181818;stroke-width:0.5;" x1="1169.5" x2="1264.8525" y1="358.2969" y2="358.2969"/><text fill="#000000" font-family="sans-serif" font-size="14" lengthAdjust="spacing" textLength="75.3525" x="1179.5" y="349.9951">GameOver</text></g><!--link *start* to Initializing--><g class="link" data-entity-1="*start*" data-entity-2="Initializing" data-source-line="1" data-uid="lnk3" id="link_*start*_Initializing"><path d="M418,26.1 C418,32.83 418,42.7219 418,53.8117 C418,59.3566 418,65.2011 418,71.0995 C418,74.0487 418,77.0114 418,79.9569 C418,80.141 418,74.325 418,74.509" fill="none" id="*start*-to-Initializing" style="stroke:#181818;stroke-width:1;"/><polygon fill="#181818" points="418,80.509,422,71.509,418,75.509,414,71.509,418,80.509" style="stroke:#181818;stroke-width:1;"/></g><!--link *start*Initializing to CheckingURL--><g class="link" data-entity-1="*start*Initializing" data-entity-2="CheckingURL" data-source-line="4" data-uid="lnk6" id="link_*start*Initializing_CheckingURL"><path d="M173,144.01 C173,157.89 173,178.97 173,198.84" fill="none" id="*start*Initializing-to-CheckingURL" style="stroke:#181818;stroke-width:1;"/><polygon fill="#181818" points="173,204.84,177,195.84,173,199.84,169,195.84,173,204.84" style="stroke:#181818;stroke-width:1;"/></g><!--link CheckingURL to LoadingFromURL--><g class="link" data-entity-1="CheckingURL" data-entity-2="LoadingFromURL" data-source-line="5" data-uid="lnk8" id="link_CheckingURL_LoadingFromURL"><path d="M195.94,255.1 C217.02,277.24 243.9428,305.5145 264.9928,327.6245" fill="none" id="CheckingURL-to-LoadingFromURL" style="stroke:#181818;stroke-width:1;"/><polygon fill="#181818" points="269.13,331.97,265.8212,322.6936,265.6823,328.3487,260.0272,328.2098,269.13,331.97" style="stroke:#181818;stroke-width:1;"/><text fill="#000000" font-family="sans-serif" font-size="13" lengthAdjust="spacing" textLength="132.1963" x="241" y="298.0669">URL has puzzle data</text></g><!--link CheckingURL to Welcome--><g class="link" data-entity-1="CheckingURL" data-entity-2="Welcome" data-source-line="6" data-uid="lnk10" id="link_CheckingURL_Welcome"><path d="M116.82,244.95 C96.23,253.08 75.04,265.68 63,285 C54.29,298.97 55.4963,311.7509 60.6363,326.3409" fill="none" id="CheckingURL-to-Welcome" style="stroke:#181818;stroke-width:1;"/><polygon fill="#181818" points="62.63,332,63.4122,322.1823,60.9686,327.2841,55.8668,324.8405,62.63,332" style="stroke:#181818;stroke-width:1;"/><text fill="#000000" font-family="sans-serif" font-size="13" lengthAdjust="spacing" textLength="152.5215" x="64" y="298.0669">URL has no puzzle data</text></g><!--link LoadingFromURL to Gaming--><g class="link" data-entity-1="LoadingFromURL" data-entity-2="Gaming" data-source-line="7" data-uid="lnk11" id="link_LoadingFromURL_Gaming"><path d="M328.24,382.07 C351.63,397.66 382.68,418.43 410,437 C485.83,488.535 570.59,546.995 637.12,593.0787 C670.385,616.1206 699.0925,636.0684 719.8475,650.5095 C730.225,657.7301 738.6144,663.5739 744.5913,667.7396 C745.3384,668.2603 741.1256,665.3236 741.7965,665.7913" fill="none" id="LoadingFromURL-to-Gaming" style="stroke:#181818;stroke-width:1;"/><polygon fill="#181818" points="746.7187,669.2224,741.6229,660.7943,742.6169,666.3631,737.0481,667.3571,746.7187,669.2224" style="stroke:#181818;stroke-width:1;"/><text fill="#000000" font-family="sans-serif" font-size="13" lengthAdjust="spacing" textLength="172.4595" x="399" y="425.0669">grid.decodeSencode(data)</text></g><!--link Welcome to Gaming--><g class="link" data-entity-1="Welcome" data-entity-2="Gaming" data-source-line="8" data-uid="lnk12" id="link_Welcome_Gaming"><path d="M116.6,381.25 C149.31,397.85 196.16,418.94 240,429 C276.86,437.46 374.17,424.91 410,437 C496.87,466.315 581.8025,524.4275 645.6613,575.8888 C677.5906,601.6194 704.2516,625.6872 723.252,643.6611 C732.7523,652.648 740.3374,660.1115 745.7084,665.4976 C746.0441,665.8343 742.1414,661.9072 742.4598,662.2275" fill="none" id="Welcome-to-Gaming" style="stroke:#181818;stroke-width:1;"/><polygon fill="#181818" points="746.6894,666.4831,743.182,657.2799,743.1647,662.9367,737.5079,662.9195,746.6894,666.4831" style="stroke:#181818;stroke-width:1;"/><text fill="#000000" font-family="sans-serif" font-size="13" lengthAdjust="spacing" textLength="125.1948" x="241" y="425.0669">startNew(difficulty)</text></g><!--link Welcome to CustomInput--><g class="link" data-entity-1="Welcome" data-entity-2="CustomInput" data-source-line="9" data-uid="lnk14" id="link_Welcome_CustomInput"><path d="M65.19,382.29 C61.41,396.15 58.74,413.74 63,429 C88.18,519.17 152.5631,604.6071 187.2731,646.3371" fill="none" id="Welcome-to-CustomInput" style="stroke:#181818;stroke-width:1;"/><polygon fill="#181818" points="191.11,650.95,188.4299,641.4728,187.9126,647.106,182.2795,646.5886,191.11,650.95" style="stroke:#181818;stroke-width:1;"/><text fill="#000000" font-family="sans-serif" font-size="13" lengthAdjust="spacing" textLength="98.4521" x="64" y="425.0669">show('prompt')</text></g><!--link CustomInput to Gaming--><g class="link" data-entity-1="CustomInput" data-entity-2="Gaming" data-source-line="10" data-uid="lnk15" id="link_CustomInput_Gaming"><path d="M267.05,676 C334.455,676 452.37,676 555.3988,676 C606.9131,676 654.7059,676 690.6027,676 C708.551,676 723.5254,676 734.5038,676 C737.2485,676 739.7434,676 741.9725,676 C743.0871,676 744.1353,676 745.115,676 C745.6049,676 740.0777,676 740.5331,676" fill="none" id="CustomInput-to-Gaming" style="stroke:#181818;stroke-width:1;"/><polygon fill="#181818" points="746.5331,676,737.5331,672,741.5331,676,737.5331,680,746.5331,676" style="stroke:#181818;stroke-width:1;"/><text fill="#000000" font-family="sans-serif" font-size="13" lengthAdjust="spacing" textLength="144.5869" x="438.82" y="669.0669">startCustom(sencode)</text></g><!--link Active to Paused--><g class="link" data-entity-1="Active" data-entity-2="Paused" data-source-line="36" data-uid="lnk21" id="link_Active_Paused"><path d="M821.52,856.11 C817.47,865.99 813.92,875.99 811,886 C804.46,908.44 819.2616,923.9007 839.3316,936.4407" fill="none" id="Active-to-Paused" style="stroke:#181818;stroke-width:1;"/><polygon fill="#181818" points="844.42,939.62,838.9069,931.4588,840.1797,936.9706,834.6678,938.2433,844.42,939.62" style="stroke:#181818;stroke-width:1;"/><text fill="#000000" font-family="sans-serif" font-size="13" lengthAdjust="spacing" textLength="88.0737" x="812" y="899.0669">pauseGame()</text></g><!--link Paused to Active--><g class="link" data-entity-1="Paused" data-entity-2="Active" data-source-line="37" data-uid="lnk22" id="link_Paused_Active"><path d="M892.85,932.81 C897.26,923.68 901.86,913.06 905,903 C909.71,887.89 912.5463,877.8653 916.2563,861.8453" fill="none" id="Paused-to-Active" style="stroke:#181818;stroke-width:1;"/><polygon fill="#181818" points="917.61,856,911.6826,863.8655,916.4819,860.8711,919.4763,865.6704,917.61,856" style="stroke:#181818;stroke-width:1;"/><text fill="#000000" font-family="sans-serif" font-size="13" lengthAdjust="spacing" textLength="97.8618" x="909" y="899.0669">resumeGame()</text></g><!--link Active to GameWon--><g class="link" data-entity-1="Active" data-entity-2="GameWon" data-source-line="38" data-uid="lnk24" id="link_Active_GameWon"><path d="M1043.52,856.07 C1055.06,872.49 1067.29,888.42 1080,903 C1089.43,913.81 1096.475,920.4122 1107.515,929.0522" fill="none" id="Active-to-GameWon" style="stroke:#181818;stroke-width:1;"/><polygon fill="#181818" points="1112.24,932.75,1107.6177,924.0532,1108.3025,929.6685,1102.6872,930.3532,1112.24,932.75" style="stroke:#181818;stroke-width:1;"/><text fill="#000000" font-family="sans-serif" font-size="13" lengthAdjust="spacing" textLength="172.0596" x="1081" y="899.0669">Check on userGrid change</text></g><!--link Gaming to Settings--><g class="link" data-entity-1="Gaming" data-entity-2="Settings" data-source-line="41" data-uid="lnk26" id="link_Gaming_Settings"><path d="M746.8707,654.8612 C746.4453,653.8077 746.0053,652.7183 745.5515,651.5943 C743.7359,647.0984 741.6971,642.0496 739.4692,636.5327 C730.5578,614.4647 718.6219,584.9056 705.8513,553.2788 C680.31,490.025 653.6762,424.0637 638.9762,387.6537" fill="none" id="Gaming-to-Settings" style="stroke:#181818;stroke-width:1;"/><polygon fill="#181818" points="636.73,382.09,636.3903,391.933,638.6019,386.7264,643.8085,388.938,636.73,382.09" style="stroke:#181818;stroke-width:1;"/><text fill="#000000" font-family="sans-serif" font-size="13" lengthAdjust="spacing" textLength="102.7305" x="655" y="425.0669">show('settings')</text></g><!--link Settings to Gaming--><g class="link" data-entity-1="Settings" data-entity-2="Gaming" data-source-line="42" data-uid="lnk27" id="link_Settings_Gaming"><path d="M611.25,382.13 C604.26,395.78 598.52,413.23 603,429 C620.285,489.85 657.3775,550.395 690.5925,596.1938 C707.2,619.0931 722.8381,638.3059 734.5463,652.027 C737.4733,655.4573 740.1547,658.5443 742.5442,661.2599 C743.739,662.6178 744.8608,663.8827 745.9038,665.0512 C746.1646,665.3434 742.4173,661.1602 742.6681,661.4402" fill="none" id="Settings-to-Gaming" style="stroke:#181818;stroke-width:1;"/><polygon fill="#181818" points="746.6712,665.9095,743.6461,656.5368,743.3353,662.1851,737.687,661.8743,746.6712,665.9095" style="stroke:#181818;stroke-width:1;"/><text fill="#000000" font-family="sans-serif" font-size="13" lengthAdjust="spacing" textLength="38.2446" x="604" y="425.0669">hide()</text></g><!--link Gaming to Share--><g class="link" data-entity-1="Gaming" data-entity-2="Share" data-source-line="44" data-uid="lnk29" id="link_Gaming_Share"><path d="M746.911,651.5304 C746.837,651.2916 746.7627,651.0511 746.6882,650.8092 C746.5392,650.3253 746.3893,649.8354 746.2384,649.3395 C745.9367,648.3477 745.6315,647.3321 745.3234,646.2936 C740.395,629.6772 734.7513,607.1919 731.405,582.4938 C724.7125,533.0975 727.21,474.85 763,437 C776.64,422.57 838.6,443.66 852,429 C863.28,416.66 862.5702,403.2976 857.6202,388.0276" fill="none" id="Gaming-to-Share" style="stroke:#181818;stroke-width:1;"/><polygon fill="#181818" points="855.77,382.32,854.7402,392.1149,857.3118,387.0763,862.3504,389.6479,855.77,382.32" style="stroke:#181818;stroke-width:1;"/><text fill="#000000" font-family="sans-serif" font-size="13" lengthAdjust="spacing" textLength="87.2104" x="860" y="425.0669">show('share')</text></g><!--link Share to Gaming--><g class="link" data-entity-1="Share" data-entity-2="Gaming" data-source-line="45" data-uid="lnk30" id="link_Share_Gaming"><path d="M820.6,382.27 C806.54,396.12 788.44,413.71 772,429 C768.08,432.64 765.27,432.16 763,437 C740.865,484.155 738.58,542.5475 741.9675,589.6925 C742.8144,601.4787 744.0158,612.562 745.3502,622.591 C745.6838,625.0983 746.0257,627.5396 746.3725,629.9096 C746.5459,631.0946 745.8148,626.3304 745.9902,627.4791" fill="none" id="Share-to-Gaming" style="stroke:#181818;stroke-width:1;"/><polygon fill="#181818" points="746.8958,633.4103,749.4916,623.9097,746.1412,628.4676,741.5832,625.1172,746.8958,633.4103" style="stroke:#181818;stroke-width:1;"/><text fill="#000000" font-family="sans-serif" font-size="13" lengthAdjust="spacing" textLength="38.2446" x="789" y="425.0669">hide()</text></g><!--link Gaming to ConfirmNewGame--><g class="link" data-entity-1="Gaming" data-entity-2="ConfirmNewGame" data-source-line="47" data-uid="lnk32" id="link_Gaming_ConfirmNewGame"><path d="M746.8417,651.9548 C746.2318,650.0466 745.6042,648.039 744.9648,645.9392 C739.8503,629.1409 733.9894,606.4444 730.5013,581.6088 C723.525,531.9375 726.04,473.71 763,437 C786.5,413.66 1037.89,452.73 1061,429 C1074.21,415.44 1066.7753,401.1282 1052.5953,386.3582" fill="none" id="Gaming-to-ConfirmNewGame" style="stroke:#181818;stroke-width:1;"/><polygon fill="#181818" points="1048.44,382.03,1051.7875,391.2925,1051.9028,385.6368,1057.5584,385.7521,1048.44,382.03" style="stroke:#181818;stroke-width:1;"/><text fill="#000000" font-family="sans-serif" font-size="13" lengthAdjust="spacing" textLength="75.7148" x="1067" y="425.0669">newGame()</text></g><!--link ConfirmNewGame to Gaming--><g class="link" data-entity-1="ConfirmNewGame" data-entity-2="Gaming" data-source-line="48" data-uid="lnk33" id="link_ConfirmNewGame_Gaming"><path d="M1005.68,382.09 C994.44,398.52 977.18,419.05 956,429 C936.58,438.13 778.12,421.76 763,437 C726.31,473.98 723.7975,532.2125 730.7075,581.8188 C734.1625,606.6219 739.9731,629.2684 745.045,646.0236 C745.679,648.118 744.484,644.4022 745.0888,646.3052" fill="none" id="ConfirmNewGame-to-Gaming" style="stroke:#181818;stroke-width:1;"/><polygon fill="#181818" points="746.9063,652.0233,747.9922,642.2345,745.3917,647.2582,740.368,644.6578,746.9063,652.0233" style="stroke:#181818;stroke-width:1;"/><text fill="#000000" font-family="sans-serif" font-size="13" lengthAdjust="spacing" textLength="38.2446" x="980" y="425.0669">hide()</text></g><!--link ConfirmNewGame to Initializing--><g class="link" data-entity-1="ConfirmNewGame" data-entity-2="Initializing" data-source-line="49" data-uid="lnk34" id="link_ConfirmNewGame_Initializing"><path d="M954.52,331.96 C877.3,303.61 745.035,255.055 631.1563,213.25 C574.2169,192.3475 521.8741,173.1325 483.3067,158.9744 C464.023,151.8953 448.1832,146.0805 436.9347,141.951 C434.1225,140.9187 431.5973,139.9916 429.377,139.1765 C428.2669,138.769 432.8654,140.4572 431.9099,140.1064" fill="none" id="ConfirmNewGame-to-Initializing" style="stroke:#181818;stroke-width:1;"/><polygon fill="#181818" points="426.2775,138.0386,433.3476,144.8952,430.9711,139.7618,436.1046,137.3853,426.2775,138.0386" style="stroke:#181818;stroke-width:1;"/><text fill="#000000" font-family="sans-serif" font-size="13" lengthAdjust="spacing" textLength="68.7769" x="745" y="234.5669">startNew()</text></g><!--link GameWon to GameOver--><g class="link" data-entity-1="GameWon" data-entity-2="GameOver" data-source-line="51" data-uid="lnk36" id="link_GameWon_GameOver"><path d="M1193.58,946.8 C1217.21,939.01 1243.85,925.62 1258,903 C1366.19,730.05 1266.1532,468.6833 1230.5532,387.6433" fill="none" id="GameWon-to-GameOver" style="stroke:#181818;stroke-width:1;"/><polygon fill="#181818" points="1228.14,382.15,1228.0975,391.9988,1230.151,386.7278,1235.422,388.7812,1228.14,382.15" style="stroke:#181818;stroke-width:1;"/><text fill="#000000" font-family="sans-serif" font-size="13" lengthAdjust="spacing" textLength="116.7588" x="1307" y="680.5669">show('gameover')</text></g><!--link GameOver to Initializing--><g class="link" data-entity-1="GameOver" data-entity-2="Initializing" data-source-line="52" data-uid="lnk37" id="link_GameOver_Initializing"><path d="M1169.36,334.32 C1096.13,301.8 950.84,240.43 822,205 C735.52,181.22 636.3,163.89 557.8313,152.4225 C518.5969,146.6888 484.5503,142.4206 459.878,139.5447 C447.5418,138.1067 437.5492,137.0168 430.4234,136.2657 C429.5327,136.1719 428.6868,136.0833 427.8867,136 C427.4866,135.9583 427.098,135.918 426.721,135.879 C426.5325,135.8594 432.3152,136.4561 432.1325,136.4372" fill="none" id="GameOver-to-Initializing" style="stroke:#181818;stroke-width:1;"/><polygon fill="#181818" points="426.1642,135.8214,434.7061,140.724,431.1378,136.3346,435.5272,132.7663,426.1642,135.8214" style="stroke:#181818;stroke-width:1;"/><text fill="#000000" font-family="sans-serif" font-size="13" lengthAdjust="spacing" textLength="68.7769" x="970" y="234.5669">startNew()</text></g><!--link GameOver to Gaming--><g class="link" data-entity-1="GameOver" data-entity-2="Gaming" data-source-line="53" data-uid="lnk38" id="link_GameOver_Gaming"><path d="M1202.12,382.24 C1190.48,398.74 1172.66,419.3 1151,429 C1131.32,437.82 778.34,421.85 763,437 C725.925,473.595 723.4075,531.8225 730.4113,581.5225 C733.9131,606.3725 739.7953,629.0906 744.9283,645.9069 C745.5699,648.0089 744.3689,644.3049 744.981,646.2151" fill="none" id="GameOver-to-Gaming" style="stroke:#181818;stroke-width:1;"/><polygon fill="#181818" points="746.8119,651.929,747.8748,642.1376,745.2862,647.1674,740.2564,644.5788,746.8119,651.929" style="stroke:#181818;stroke-width:1;"/><text fill="#000000" font-family="sans-serif" font-size="13" lengthAdjust="spacing" textLength="38.2446" x="1175" y="425.0669">hide()</text></g><!--SRC=[XLJDRjim3BxdANIhKwnv01yAR1dM1KsxeJ_e8SX1isXRg2qPajoWAVhk9INRiHm3EydazoEAehoxtBEhgsksKT99NicZLCLYOHrt4ENOnuAnNKTUbv2zOlBvOOlPKUJHhUO2mrz6rvXA6ULBRbdJ7eyLCC4Tdr6zG9Nf6avqfIUAsDUBRdYDcPGLHegLW4mBU0H5IqAY9QewtuYEnpFk7Ww9a7akixPoxrFgkhLErnlLj0xvfJua5mrktBWBOexGS-C09ZOKibnyzlqCBD_9aFYUEVa6Fd5gxdrR_mDpXrAVFeK1rGueIB4_3kpAwQAe85a6RWTEVCwudXnA6Dc7CbWa_0avn_QmcWYvDWoK0qEdK9vblUOpSkoB6Fo6akzw5oxe9bd6bP22HBx0iLTeJOgJe4G5j_2UX0sNRBTHenBt4Nimj2lS8ccq_SOYNLVAVcQFtrAvheyni0Lkr2poWsUlJuRxEPubF2kXPu47w01_t6uEwDR-yjQ2I5b3AmvCkDgGzOJUnu1jwnDZP46v5wtIyCIOLWp5vWQV2Cjmzm9e8hjP9FuZE8VVjfzpsyKuwJqK3NafXH-YiKN93Gnw2aXCw_-KQwroQMfyZ5GsJchuG5QCpFbC6K8VrEHNDdhhOL_gpD2bFszW-geBZ3N6M7WFdVqO8xU85LVs1G00]--></g></svg>