<svg xmlns="http://www.w3.org/2000/svg" xmlns:xlink="http://www.w3.org/1999/xlink" contentStyleType="text/css" data-diagram-type="SEQUENCE" height="554px" preserveAspectRatio="none" style="width:1030px;height:554px;background:#FFFFFF;" version="1.1" viewBox="0 0 1030 554" width="1030px" zoomAndPan="magnify"><title>&#24207;&#21015;&#22270;: &#29609;&#23478;&#22635;&#20889;&#25968;&#23383;</title><defs/><g><text fill="#000000" font-family="sans-serif" font-size="14" font-weight="bold" lengthAdjust="spacing" textLength="136.4727" x="448.5701" y="27.9951">&#24207;&#21015;&#22270;: &#29609;&#23478;&#22635;&#20889;&#25968;&#23383;</text><g><title>Cell.svelte</title><rect fill="#FFFFFF" height="29.1328" style="stroke:#181818;stroke-width:1;" width="10" x="151.71" y="149.7266"/></g><g><title>Keyboard.svelte</title><rect fill="#FFFFFF" height="241.0625" style="stroke:#181818;stroke-width:1;" width="10" x="268.8052" y="207.9922"/></g><g><title>userGrid.js</title><rect fill="#FFFFFF" height="211.9297" style="stroke:#181818;stroke-width:1;" width="10" x="470.8496" y="237.125"/></g><g><title>solver.js</title><rect fill="#FFFFFF" height="29.1328" style="stroke:#181818;stroke-width:1;" width="10" x="754.9556" y="324.5234"/></g><g><title>history.js</title><rect fill="#FFFFFF" height="29.1328" style="stroke:#181818;stroke-width:1;" width="10" x="839.8672" y="266.2578"/></g><rect fill="none" height="46.2656" style="stroke:#000000;stroke-width:1.5;" width="603.5386" x="421.0742" y="368.6563"/><g><title>Player</title><rect fill="#000000" fill-opacity="0.00000" height="355.4609" width="8" x="25.7827" y="118.5938"/><line style="stroke:#181818;stroke-width:0.5;stroke-dasharray:5.0,5.0;" x1="29" x2="29" y1="118.5938" y2="474.0547"/></g><g><title>Cell.svelte</title><rect fill="#000000" fill-opacity="0.00000" height="355.4609" width="8" x="152.71" y="118.5938"/><line style="stroke:#181818;stroke-width:0.5;stroke-dasharray:5.0,5.0;" x1="156.3086" x2="156.3086" y1="118.5938" y2="474.0547"/></g><g><title>Keyboard.svelte</title><rect fill="#000000" fill-opacity="0.00000" height="355.4609" width="8" x="269.8052" y="118.5938"/><line style="stroke:#181818;stroke-width:0.5;stroke-dasharray:5.0,5.0;" x1="273.1113" x2="273.1113" y1="118.5938" y2="474.0547"/></g><g><title>cursor.js</title><rect fill="#000000" fill-opacity="0.00000" height="355.4609" width="8" x="380.2866" y="118.5938"/><line style="stroke:#181818;stroke-width:0.5;stroke-dasharray:5.0,5.0;" x1="383.499" x2="383.499" y1="118.5938" y2="474.0547"/></g><g><title>userGrid.js</title><rect fill="#000000" fill-opacity="0.00000" height="355.4609" width="8" x="471.8496" y="118.5938"/><line style="stroke:#181818;stroke-width:0.5;stroke-dasharray:5.0,5.0;" x1="475.0742" x2="475.0742" y1="118.5938" y2="474.0547"/></g><g><title>solver.js</title><rect fill="#000000" fill-opacity="0.00000" height="355.4609" width="8" x="755.9556" y="118.5938"/><line style="stroke:#181818;stroke-width:0.5;stroke-dasharray:5.0,5.0;" x1="759.937" x2="759.937" y1="118.5938" y2="474.0547"/></g><g><title>history.js</title><rect fill="#000000" fill-opacity="0.00000" height="355.4609" width="8" x="840.8672" y="118.5938"/><line style="stroke:#181818;stroke-width:0.5;stroke-dasharray:5.0,5.0;" x1="843.9741" x2="843.9741" y1="118.5938" y2="474.0547"/></g><g><title>branchPoints.js</title><rect fill="#000000" fill-opacity="0.00000" height="355.4609" width="8" x="950.1865" y="118.5938"/><line style="stroke:#181818;stroke-width:0.5;stroke-dasharray:5.0,5.0;" x1="953.7603" x2="953.7603" y1="118.5938" y2="474.0547"/></g><g class="participant participant-head" data-participant="Player"><text fill="#000000" font-family="sans-serif" font-size="14" lengthAdjust="spacing" textLength="43.5654" x="5" y="115.292">Player</text><ellipse cx="29.7827" cy="50.7969" fill="#E2E2F0" rx="8" ry="8" style="stroke:#181818;stroke-width:0.5;"/><path d="M29.7827,58.7969 L29.7827,85.7969 M16.7827,66.7969 L42.7827,66.7969 M29.7827,85.7969 L16.7827,100.7969 M29.7827,85.7969 L42.7827,100.7969" fill="none" style="stroke:#181818;stroke-width:0.5;"/></g><g class="participant participant-tail" data-participant="Player"><text fill="#000000" font-family="sans-serif" font-size="14" lengthAdjust="spacing" textLength="43.5654" x="5" y="486.0498">Player</text><ellipse cx="29.7827" cy="497.8516" fill="#E2E2F0" rx="8" ry="8" style="stroke:#181818;stroke-width:0.5;"/><path d="M29.7827,505.8516 L29.7827,532.8516 M16.7827,513.8516 L42.7827,513.8516 M29.7827,532.8516 L16.7827,547.8516 M29.7827,532.8516 L42.7827,547.8516" fill="none" style="stroke:#181818;stroke-width:0.5;"/></g><g class="participant participant-head" data-participant="Cell"><rect fill="#E2E2F0" height="30.2969" rx="2.5" ry="2.5" style="stroke:#181818;stroke-width:0.5;" width="86.8027" x="113.3086" y="87.2969"/><text fill="#000000" font-family="sans-serif" font-size="14" lengthAdjust="spacing" textLength="72.8027" x="120.3086" y="107.292">Cell.svelte</text></g><g class="participant participant-tail" data-participant="Cell"><rect fill="#E2E2F0" height="30.2969" rx="2.5" ry="2.5" style="stroke:#181818;stroke-width:0.5;" width="86.8027" x="113.3086" y="473.0547"/><text fill="#000000" font-family="sans-serif" font-size="14" lengthAdjust="spacing" textLength="72.8027" x="120.3086" y="493.0498">Cell.svelte</text></g><g class="participant participant-head" data-participant="Keyboard"><rect fill="#E2E2F0" height="30.2969" rx="2.5" ry="2.5" style="stroke:#181818;stroke-width:0.5;" width="127.3877" x="210.1113" y="87.2969"/><text fill="#000000" font-family="sans-serif" font-size="14" lengthAdjust="spacing" textLength="113.3877" x="217.1113" y="107.292">Keyboard.svelte</text></g><g class="participant participant-tail" data-participant="Keyboard"><rect fill="#E2E2F0" height="30.2969" rx="2.5" ry="2.5" style="stroke:#181818;stroke-width:0.5;" width="127.3877" x="210.1113" y="473.0547"/><text fill="#000000" font-family="sans-serif" font-size="14" lengthAdjust="spacing" textLength="113.3877" x="217.1113" y="493.0498">Keyboard.svelte</text></g><g class="participant participant-head" data-participant="CursorStore"><rect fill="#E2E2F0" height="30.2969" rx="2.5" ry="2.5" style="stroke:#181818;stroke-width:0.5;" width="73.5752" x="347.499" y="87.2969"/><text fill="#000000" font-family="sans-serif" font-size="14" lengthAdjust="spacing" textLength="59.5752" x="354.499" y="107.292">cursor.js</text></g><g class="participant participant-tail" data-participant="CursorStore"><rect fill="#E2E2F0" height="30.2969" rx="2.5" ry="2.5" style="stroke:#181818;stroke-width:0.5;" width="73.5752" x="347.499" y="473.0547"/><text fill="#000000" font-family="sans-serif" font-size="14" lengthAdjust="spacing" textLength="59.5752" x="354.499" y="493.0498">cursor.js</text></g><g class="participant participant-head" data-participant="UserGridStore"><rect fill="#E2E2F0" height="30.2969" rx="2.5" ry="2.5" style="stroke:#181818;stroke-width:0.5;" width="89.5508" x="431.0742" y="87.2969"/><text fill="#000000" font-family="sans-serif" font-size="14" lengthAdjust="spacing" textLength="75.5508" x="438.0742" y="107.292">userGrid.js</text></g><g class="participant participant-tail" data-participant="UserGridStore"><rect fill="#E2E2F0" height="30.2969" rx="2.5" ry="2.5" style="stroke:#181818;stroke-width:0.5;" width="89.5508" x="431.0742" y="473.0547"/><text fill="#000000" font-family="sans-serif" font-size="14" lengthAdjust="spacing" textLength="75.5508" x="438.0742" y="493.0498">userGrid.js</text></g><g class="participant participant-head" data-participant="Solver"><rect fill="#E2E2F0" height="30.2969" rx="2.5" ry="2.5" style="stroke:#181818;stroke-width:0.5;" width="72.0371" x="723.937" y="87.2969"/><text fill="#000000" font-family="sans-serif" font-size="14" lengthAdjust="spacing" textLength="58.0371" x="730.937" y="107.292">solver.js</text></g><g class="participant participant-tail" data-participant="Solver"><rect fill="#E2E2F0" height="30.2969" rx="2.5" ry="2.5" style="stroke:#181818;stroke-width:0.5;" width="72.0371" x="723.937" y="473.0547"/><text fill="#000000" font-family="sans-serif" font-size="14" lengthAdjust="spacing" textLength="58.0371" x="730.937" y="493.0498">solver.js</text></g><g class="participant participant-head" data-participant="HistoryStore"><rect fill="#E2E2F0" height="30.2969" rx="2.5" ry="2.5" style="stroke:#181818;stroke-width:0.5;" width="77.7861" x="805.9741" y="87.2969"/><text fill="#000000" font-family="sans-serif" font-size="14" lengthAdjust="spacing" textLength="63.7861" x="812.9741" y="107.292">history.js</text></g><g class="participant participant-tail" data-participant="HistoryStore"><rect fill="#E2E2F0" height="30.2969" rx="2.5" ry="2.5" style="stroke:#181818;stroke-width:0.5;" width="77.7861" x="805.9741" y="473.0547"/><text fill="#000000" font-family="sans-serif" font-size="14" lengthAdjust="spacing" textLength="63.7861" x="812.9741" y="493.0498">history.js</text></g><g class="participant participant-head" data-participant="BranchStore"><rect fill="#E2E2F0" height="30.2969" rx="2.5" ry="2.5" style="stroke:#181818;stroke-width:0.5;" width="120.8525" x="893.7603" y="87.2969"/><text fill="#000000" font-family="sans-serif" font-size="14" lengthAdjust="spacing" textLength="106.8525" x="900.7603" y="107.292">branchPoints.js</text></g><g class="participant participant-tail" data-participant="BranchStore"><rect fill="#E2E2F0" height="30.2969" rx="2.5" ry="2.5" style="stroke:#181818;stroke-width:0.5;" width="120.8525" x="893.7603" y="473.0547"/><text fill="#000000" font-family="sans-serif" font-size="14" lengthAdjust="spacing" textLength="106.8525" x="900.7603" y="493.0498">branchPoints.js</text></g><g><title>Cell.svelte</title><rect fill="#FFFFFF" height="29.1328" style="stroke:#181818;stroke-width:1;" width="10" x="151.71" y="149.7266"/></g><g><title>Keyboard.svelte</title><rect fill="#FFFFFF" height="241.0625" style="stroke:#181818;stroke-width:1;" width="10" x="268.8052" y="207.9922"/></g><g><title>userGrid.js</title><rect fill="#FFFFFF" height="211.9297" style="stroke:#181818;stroke-width:1;" width="10" x="470.8496" y="237.125"/></g><g><title>solver.js</title><rect fill="#FFFFFF" height="29.1328" style="stroke:#181818;stroke-width:1;" width="10" x="754.9556" y="324.5234"/></g><g><title>history.js</title><rect fill="#FFFFFF" height="29.1328" style="stroke:#181818;stroke-width:1;" width="10" x="839.8672" y="266.2578"/></g><g class="message" data-participant-1="Player" data-participant-2="Cell"><polygon fill="#181818" points="139.71,145.7266,149.71,149.7266,139.71,153.7266,143.71,149.7266" style="stroke:#181818;stroke-width:1;"/><line style="stroke:#181818;stroke-width:1;" x1="29.7827" x2="145.71" y1="149.7266" y2="149.7266"/><text fill="#000000" font-family="sans-serif" font-size="13" lengthAdjust="spacing" textLength="102.9272" x="36.7827" y="144.6606">&#28857;&#20987;&#21333;&#20803;&#26684; (x, y)</text></g><g class="message" data-participant-1="Cell" data-participant-2="CursorStore"><polygon fill="#181818" points="372.2866,174.8594,382.2866,178.8594,372.2866,182.8594,376.2866,178.8594" style="stroke:#181818;stroke-width:1;"/><line style="stroke:#181818;stroke-width:1;" x1="156.71" x2="378.2866" y1="178.8594" y2="178.8594"/><text fill="#000000" font-family="sans-serif" font-size="13" lengthAdjust="spacing" textLength="53.6631" x="163.71" y="173.7935">set(x, y)</text></g><g class="message" data-participant-1="Player" data-participant-2="Keyboard"><polygon fill="#181818" points="256.8052,203.9922,266.8052,207.9922,256.8052,211.9922,260.8052,207.9922" style="stroke:#181818;stroke-width:1;"/><line style="stroke:#181818;stroke-width:1;" x1="29.7827" x2="262.8052" y1="207.9922" y2="207.9922"/><text fill="#000000" font-family="sans-serif" font-size="13" lengthAdjust="spacing" textLength="71.5508" x="36.7827" y="202.9263">&#28857;&#20987;&#25968;&#23383; '5'</text></g><g class="message" data-participant-1="Keyboard" data-participant-2="UserGridStore"><polygon fill="#181818" points="458.8496,233.125,468.8496,237.125,458.8496,241.125,462.8496,237.125" style="stroke:#181818;stroke-width:1;"/><line style="stroke:#181818;stroke-width:1;" x1="278.8052" x2="464.8496" y1="237.125" y2="237.125"/><text fill="#000000" font-family="sans-serif" font-size="13" lengthAdjust="spacing" textLength="86.7407" x="285.8052" y="232.0591">set({x, y}, 5)</text></g><g class="message" data-participant-1="UserGridStore" data-participant-2="HistoryStore"><polygon fill="#181818" points="827.8672,262.2578,837.8672,266.2578,827.8672,270.2578,831.8672,266.2578" style="stroke:#181818;stroke-width:1;"/><line style="stroke:#181818;stroke-width:1;" x1="480.8496" x2="833.8672" y1="266.2578" y2="266.2578"/><text fill="#000000" font-family="sans-serif" font-size="13" lengthAdjust="spacing" textLength="74.8071" x="487.8496" y="261.1919">add({x, y})</text></g><g class="message" data-participant-1="HistoryStore" data-participant-2="UserGridStore"><polygon fill="#181818" points="491.8496,291.3906,481.8496,295.3906,491.8496,299.3906,487.8496,295.3906" style="stroke:#181818;stroke-width:1;"/><line style="stroke:#181818;stroke-width:1;stroke-dasharray:2.0,2.0;" x1="485.8496" x2="843.8672" y1="295.3906" y2="295.3906"/><text fill="#000000" font-family="sans-serif" font-size="13" lengthAdjust="spacing" textLength="156" x="497.8496" y="290.3247">&#36820;&#22238;&#26356;&#26032;&#21518;&#30340;&#21382;&#21490;&#35760;&#24405;&#38271;&#24230;</text></g><g class="message" data-participant-1="UserGridStore" data-participant-2="Solver"><polygon fill="#181818" points="742.9556,320.5234,752.9556,324.5234,742.9556,328.5234,746.9556,324.5234" style="stroke:#181818;stroke-width:1;"/><line style="stroke:#181818;stroke-width:1;" x1="480.8496" x2="748.9556" y1="324.5234" y2="324.5234"/><text fill="#000000" font-family="sans-serif" font-size="13" lengthAdjust="spacing" textLength="255.106" x="487.8496" y="319.4575">getOnePossibleNumber(grid, cellIndex)</text></g><g class="message" data-participant-1="Solver" data-participant-2="UserGridStore"><polygon fill="#181818" points="491.8496,349.6563,481.8496,353.6563,491.8496,357.6563,487.8496,353.6563" style="stroke:#181818;stroke-width:1;"/><line style="stroke:#181818;stroke-width:1;stroke-dasharray:2.0,2.0;" x1="485.8496" x2="758.9556" y1="353.6563" y2="353.6563"/><text fill="#000000" font-family="sans-serif" font-size="13" lengthAdjust="spacing" textLength="130.0825" x="497.8496" y="348.5903">&#36820;&#22238;&#20505;&#36873;&#25968;&#21015;&#34920; [2, 5]</text></g><path d="M421.0742,368.6563 L485.5171,368.6563 L485.5171,375.7891 L475.5171,385.7891 L421.0742,385.7891 L421.0742,368.6563" fill="#EEEEEE" style="stroke:#000000;stroke-width:1.5;"/><rect fill="none" height="46.2656" style="stroke:#000000;stroke-width:1.5;" width="603.5386" x="421.0742" y="368.6563"/><text fill="#000000" font-family="sans-serif" font-size="13" font-weight="bold" lengthAdjust="spacing" textLength="19.4429" x="436.0742" y="381.7231">alt</text><text fill="#000000" font-family="sans-serif" font-size="11" font-weight="bold" lengthAdjust="spacing" textLength="211.7017" x="500.5171" y="380.8667">[onePossibleNumber.length == 2]</text><g class="message" data-participant-1="UserGridStore" data-participant-2="BranchStore"><polygon fill="#181818" points="942.1865,402.9219,952.1865,406.9219,942.1865,410.9219,946.1865,406.9219" style="stroke:#181818;stroke-width:1;"/><line style="stroke:#181818;stroke-width:1;" x1="480.8496" x2="948.1865" y1="406.9219" y2="406.9219"/><text fill="#000000" font-family="sans-serif" font-size="13" lengthAdjust="spacing" textLength="146.123" x="487.8496" y="401.856">add(history.length - 1)</text></g><g class="message" data-participant-1="UserGridStore" data-participant-2="UserGridStore"><line style="stroke:#181818;stroke-width:1;" x1="480.8496" x2="522.8496" y1="448.0547" y2="448.0547"/><line style="stroke:#181818;stroke-width:1;" x1="522.8496" x2="522.8496" y1="448.0547" y2="461.0547"/><line style="stroke:#181818;stroke-width:1;" x1="475.8496" x2="522.8496" y1="461.0547" y2="461.0547"/><polygon fill="#181818" points="485.8496,457.0547,475.8496,461.0547,485.8496,465.0547,481.8496,461.0547" style="stroke:#181818;stroke-width:1;"/><text fill="#000000" font-family="sans-serif" font-size="13" lengthAdjust="spacing" textLength="78" x="487.8496" y="442.9888">&#26356;&#26032;&#26827;&#30424;&#25968;&#32452;</text></g><!--SRC=[TP91QnD15CVl-oaUkRI5962Xbq0zs8EAe87YgNYOx3wIbN6tp4n2WmZ5rbeHKm_6j0R48eYbM8A8OAlsqxnD-YtStTbfPvguXzrzk__vl__yvgbGSOGIdUxHxe26VsimxXtHoKywFAQTWwG_ec-3akSnNyK2wfnrKNZhJAZG3zTPfA2qWfnNPGUvmX8m2LdjAkvXjn4p4TWgyyrL-cqXOr5zBBLJNgscZT6LjIMAso8CZF1XKS-GofXtyD9nDQzSHIkKwRAkaTpHvGohXc2Htwh7OQIaKT_Alscnf-b0vMRE80Nv_1UzFACtVNgnbNpw3VCRPUWkP2Z33bEeIMMtVCdLPciWKHNY05svrSGWD8tqMS7SqjnLYqlCvYLRwE3IpPvctPwLOScAvrBrd3ApiKdLW0L1uM9PE33j0YhJEIRdxsZuCHd-IDwFw6rl_66RUZkqztroCg8__Ol-EPr-iNauvjFnz5dNe8dgGOJrMCgmmV5- -qa3nNmpLPR1JudUZGBSi28N8w8V_uz9cmSNcwyovBk3oU5NM5jCuJsounL67kCAuki1gXoZfch1yZ8iUf1UK_6joT9mpPmMAojmOy73A9Ynysk1DT7ay-lnS3yDF3xRjcEwfspzC1Fp3m00]--></g></svg>