<svg xmlns="http://www.w3.org/2000/svg" xmlns:xlink="http://www.w3.org/1999/xlink" contentStyleType="text/css" data-diagram-type="SEQUENCE" height="539px" preserveAspectRatio="none" style="width:502px;height:539px;background:#FFFFFF;" version="1.1" viewBox="0 0 502 539" width="502px" zoomAndPan="magnify"><title>&#24207;&#21015;&#22270;: &#24320;&#22987;&#26032;&#28216;&#25103;</title><defs/><g><text fill="#000000" font-family="sans-serif" font-size="14" font-weight="bold" lengthAdjust="spacing" textLength="122.4727" x="188.8296" y="27.9951">&#24207;&#21015;&#22270;: &#24320;&#22987;&#26032;&#28216;&#25103;</text><g><title>Dropdown.svelte</title><rect fill="#FFFFFF" height="29.1328" style="stroke:#181818;stroke-width:1;" width="10" x="162.063" y="149.7266"/></g><g><title>Dropdown.svelte</title><rect fill="#FFFFFF" height="233.0625" style="stroke:#181818;stroke-width:1;" width="10" x="162.063" y="207.9922"/></g><g><title>game.js</title><rect fill="#FFFFFF" height="203.9297" style="stroke:#181818;stroke-width:1;" width="10" x="297.418" y="237.125"/></g><g><title>Player</title><rect fill="#000000" fill-opacity="0.00000" height="340.4609" width="8" x="25.7827" y="118.5938"/><line style="stroke:#181818;stroke-width:0.5;stroke-dasharray:5.0,5.0;" x1="29" x2="29" y1="118.5938" y2="459.0547"/></g><g><title>Dropdown.svelte</title><rect fill="#000000" fill-opacity="0.00000" height="340.4609" width="8" x="163.063" y="118.5938"/><line style="stroke:#181818;stroke-width:0.5;stroke-dasharray:5.0,5.0;" x1="166.8638" x2="166.8638" y1="118.5938" y2="459.0547"/></g><g><title>game.js</title><rect fill="#000000" fill-opacity="0.00000" height="340.4609" width="8" x="298.418" y="118.5938"/><line style="stroke:#181818;stroke-width:0.5;stroke-dasharray:5.0,5.0;" x1="301.7427" x2="301.7427" y1="118.5938" y2="459.0547"/></g><g><title>stores</title><rect fill="#000000" fill-opacity="0.00000" height="340.4609" width="8" x="463.626" y="118.5938"/><line style="stroke:#181818;stroke-width:0.5;stroke-dasharray:5.0,5.0;" x1="467.1201" x2="467.1201" y1="118.5938" y2="459.0547"/></g><g class="participant participant-head" data-participant="Player"><text fill="#000000" font-family="sans-serif" font-size="14" lengthAdjust="spacing" textLength="43.5654" x="5" y="115.292">Player</text><ellipse cx="29.7827" cy="50.7969" fill="#E2E2F0" rx="8" ry="8" style="stroke:#181818;stroke-width:0.5;"/><path d="M29.7827,58.7969 L29.7827,85.7969 M16.7827,66.7969 L42.7827,66.7969 M29.7827,85.7969 L16.7827,100.7969 M29.7827,85.7969 L42.7827,100.7969" fill="none" style="stroke:#181818;stroke-width:0.5;"/></g><g class="participant participant-tail" data-participant="Player"><text fill="#000000" font-family="sans-serif" font-size="14" lengthAdjust="spacing" textLength="43.5654" x="5" y="471.0498">Player</text><ellipse cx="29.7827" cy="482.8516" fill="#E2E2F0" rx="8" ry="8" style="stroke:#181818;stroke-width:0.5;"/><path d="M29.7827,490.8516 L29.7827,517.8516 M16.7827,498.8516 L42.7827,498.8516 M29.7827,517.8516 L16.7827,532.8516 M29.7827,517.8516 L42.7827,532.8516" fill="none" style="stroke:#181818;stroke-width:0.5;"/></g><g class="participant participant-head" data-participant="Dropdown"><rect fill="#E2E2F0" height="30.2969" rx="2.5" ry="2.5" style="stroke:#181818;stroke-width:0.5;" width="132.3984" x="100.8638" y="87.2969"/><text fill="#000000" font-family="sans-serif" font-size="14" lengthAdjust="spacing" textLength="118.3984" x="107.8638" y="107.292">Dropdown.svelte</text></g><g class="participant participant-tail" data-participant="Dropdown"><rect fill="#E2E2F0" height="30.2969" rx="2.5" ry="2.5" style="stroke:#181818;stroke-width:0.5;" width="132.3984" x="100.8638" y="458.0547"/><text fill="#000000" font-family="sans-serif" font-size="14" lengthAdjust="spacing" textLength="118.3984" x="107.8638" y="478.0498">Dropdown.svelte</text></g><g class="participant participant-head" data-participant="Game"><rect fill="#E2E2F0" height="30.2969" rx="2.5" ry="2.5" style="stroke:#181818;stroke-width:0.5;" width="69.3506" x="267.7427" y="87.2969"/><text fill="#000000" font-family="sans-serif" font-size="14" lengthAdjust="spacing" textLength="55.3506" x="274.7427" y="107.292">game.js</text></g><g class="participant participant-tail" data-participant="Game"><rect fill="#E2E2F0" height="30.2969" rx="2.5" ry="2.5" style="stroke:#181818;stroke-width:0.5;" width="69.3506" x="267.7427" y="458.0547"/><text fill="#000000" font-family="sans-serif" font-size="14" lengthAdjust="spacing" textLength="55.3506" x="274.7427" y="478.0498">game.js</text></g><g class="participant participant-head" data-participant="Stores"><rect fill="#E2E2F0" height="30.2969" rx="2.5" ry="2.5" style="stroke:#181818;stroke-width:0.5;" width="57.0117" x="439.1201" y="87.2969"/><text fill="#000000" font-family="sans-serif" font-size="14" lengthAdjust="spacing" textLength="43.0117" x="446.1201" y="107.292">stores</text></g><g class="participant participant-tail" data-participant="Stores"><rect fill="#E2E2F0" height="30.2969" rx="2.5" ry="2.5" style="stroke:#181818;stroke-width:0.5;" width="57.0117" x="439.1201" y="458.0547"/><text fill="#000000" font-family="sans-serif" font-size="14" lengthAdjust="spacing" textLength="43.0117" x="446.1201" y="478.0498">stores</text></g><g><title>Dropdown.svelte</title><rect fill="#FFFFFF" height="29.1328" style="stroke:#181818;stroke-width:1;" width="10" x="162.063" y="149.7266"/></g><g><title>Dropdown.svelte</title><rect fill="#FFFFFF" height="233.0625" style="stroke:#181818;stroke-width:1;" width="10" x="162.063" y="207.9922"/></g><g><title>game.js</title><rect fill="#FFFFFF" height="203.9297" style="stroke:#181818;stroke-width:1;" width="10" x="297.418" y="237.125"/></g><g class="message" data-participant-1="Player" data-participant-2="Dropdown"><polygon fill="#181818" points="150.063,145.7266,160.063,149.7266,150.063,153.7266,154.063,149.7266" style="stroke:#181818;stroke-width:1;"/><line style="stroke:#181818;stroke-width:1;" x1="29.7827" x2="156.063" y1="149.7266" y2="149.7266"/><text fill="#000000" font-family="sans-serif" font-size="13" lengthAdjust="spacing" textLength="113.2803" x="36.7827" y="144.6606">&#28857;&#20987; "New Game"</text></g><g class="message" data-participant-1="Dropdown" data-participant-2="Player"><polygon fill="#181818" points="40.7827,174.8594,30.7827,178.8594,40.7827,182.8594,36.7827,178.8594" style="stroke:#181818;stroke-width:1;"/><line style="stroke:#181818;stroke-width:1;" x1="34.7827" x2="166.063" y1="178.8594" y2="178.8594"/><text fill="#000000" font-family="sans-serif" font-size="13" lengthAdjust="spacing" textLength="78" x="46.7827" y="173.7935">&#26174;&#31034;&#38590;&#24230;&#36873;&#39033;</text></g><g class="message" data-participant-1="Player" data-participant-2="Dropdown"><polygon fill="#181818" points="150.063,203.9922,160.063,207.9922,150.063,211.9922,154.063,207.9922" style="stroke:#181818;stroke-width:1;"/><line style="stroke:#181818;stroke-width:1;" x1="29.7827" x2="156.063" y1="207.9922" y2="207.9922"/><text fill="#000000" font-family="sans-serif" font-size="13" lengthAdjust="spacing" textLength="103.854" x="36.7827" y="202.9263">&#36873;&#25321;&#38590;&#24230; ('easy')</text></g><g class="message" data-participant-1="Dropdown" data-participant-2="Game"><polygon fill="#181818" points="285.418,233.125,295.418,237.125,285.418,241.125,289.418,237.125" style="stroke:#181818;stroke-width:1;"/><line style="stroke:#181818;stroke-width:1;" x1="172.063" x2="291.418" y1="237.125" y2="237.125"/><text fill="#000000" font-family="sans-serif" font-size="13" lengthAdjust="spacing" textLength="106.355" x="179.063" y="232.0591">startNew('easy')</text></g><g class="message" data-participant-1="Game" data-participant-2="Stores"><polygon fill="#181818" points="455.626,262.2578,465.626,266.2578,455.626,270.2578,459.626,266.2578" style="stroke:#181818;stroke-width:1;"/><line style="stroke:#181818;stroke-width:1;" x1="307.418" x2="461.626" y1="266.2578" y2="266.2578"/><text fill="#000000" font-family="sans-serif" font-size="13" lengthAdjust="spacing" textLength="128.1401" x="314.418" y="261.1919">difficulty.set('easy')</text></g><g class="message" data-participant-1="Game" data-participant-2="Stores"><polygon fill="#181818" points="455.626,291.3906,465.626,295.3906,455.626,299.3906,459.626,295.3906" style="stroke:#181818;stroke-width:1;"/><line style="stroke:#181818;stroke-width:1;" x1="307.418" x2="461.626" y1="295.3906" y2="295.3906"/><text fill="#000000" font-family="sans-serif" font-size="13" lengthAdjust="spacing" textLength="136.208" x="314.418" y="290.3247">grid.generate('easy')</text></g><g class="message" data-participant-1="Game" data-participant-2="Stores"><polygon fill="#181818" points="455.626,320.5234,465.626,324.5234,455.626,328.5234,459.626,324.5234" style="stroke:#181818;stroke-width:1;"/><line style="stroke:#181818;stroke-width:1;" x1="307.418" x2="461.626" y1="324.5234" y2="324.5234"/><text fill="#000000" font-family="sans-serif" font-size="13" lengthAdjust="spacing" textLength="82.2021" x="314.418" y="319.4575">timer.reset()</text></g><g class="message" data-participant-1="Game" data-participant-2="Stores"><polygon fill="#181818" points="455.626,349.6563,465.626,353.6563,455.626,357.6563,459.626,353.6563" style="stroke:#181818;stroke-width:1;"/><line style="stroke:#181818;stroke-width:1;" x1="307.418" x2="461.626" y1="353.6563" y2="353.6563"/><text fill="#000000" font-family="sans-serif" font-size="13" lengthAdjust="spacing" textLength="79.4473" x="314.418" y="348.5903">hints.reset()</text></g><g class="message" data-participant-1="Game" data-participant-2="Stores"><polygon fill="#181818" points="455.626,378.7891,465.626,382.7891,455.626,386.7891,459.626,382.7891" style="stroke:#181818;stroke-width:1;"/><line style="stroke:#181818;stroke-width:1;" x1="307.418" x2="461.626" y1="382.7891" y2="382.7891"/><text fill="#000000" font-family="sans-serif" font-size="13" lengthAdjust="spacing" textLength="89.5273" x="314.418" y="377.7231">record.reset()</text></g><g class="message" data-participant-1="Game" data-participant-2="Stores"><polygon fill="#181818" points="455.626,407.9219,465.626,411.9219,455.626,415.9219,459.626,411.9219" style="stroke:#181818;stroke-width:1;"/><line style="stroke:#181818;stroke-width:1;" x1="307.418" x2="461.626" y1="411.9219" y2="411.9219"/><text fill="#000000" font-family="sans-serif" font-size="13" lengthAdjust="spacing" textLength="132.1899" x="314.418" y="406.856">branchPoints.reset()</text></g><g class="message" data-participant-1="Game" data-participant-2="Stores"><polygon fill="#181818" points="455.626,437.0547,465.626,441.0547,455.626,445.0547,459.626,441.0547" style="stroke:#181818;stroke-width:1;"/><line style="stroke:#181818;stroke-width:1;" x1="302.418" x2="461.626" y1="441.0547" y2="441.0547"/><text fill="#000000" font-family="sans-serif" font-size="13" lengthAdjust="spacing" textLength="92.1997" x="309.418" y="435.9888">history.reset()</text></g><!--SRC=[XL4zJiCm5DvzYYSlXO4S80CJ4Xkgn0bCyfeOfKbacrRPAXQAEdG311CI0h4njW7rDawLMzHEr4190ulrvE_l_IYk8WIgyxcUtkkdbGlwQwBVPiNTHx5O5DCv9OHvAX7GZrY6WgHCAExnbCKAw8b8KZyPnuuSOQIG0fEm_Tjb1co8pgMi6AUctaMb2S0QFAzAGkeuE3fk35rONo_rpIVGCnnN9jIsnaTCuNVgjh3AsiE5uc6rVidBnvNENyl9RVcy93wsfNip3R-OlTTQEEWXardly9zSsviBKfaHJQjjKRK0Ob_BhYTsmUU30VUk8fKv4bMZ-aqB1FUT06CKnggJfVWGXMDAuzH6GnuhsOaAz1BXTy8NWiLUs4_-z0YvlMdMu3yNNes_vm0R]--></g></svg>