<svg xmlns="http://www.w3.org/2000/svg" xmlns:xlink="http://www.w3.org/1999/xlink" contentStyleType="text/css" data-diagram-type="SEQUENCE" height="565px" preserveAspectRatio="none" style="width:864px;height:565px;background:#FFFFFF;" version="1.1" viewBox="0 0 864 565" width="864px" zoomAndPan="magnify"><title>&#24207;&#21015;&#22270;: &#35831;&#27714;&#25552;&#31034; (&#23398;&#20064;&#27169;&#24335;)</title><defs/><g><text fill="#000000" font-family="sans-serif" font-size="14" font-weight="bold" lengthAdjust="spacing" textLength="182.1436" x="340.355" y="27.9951">&#24207;&#21015;&#22270;: &#35831;&#27714;&#25552;&#31034; (&#23398;&#20064;&#27169;&#24335;)</text><g><title>Actions.svelte</title><rect fill="#FFFFFF" height="317.1953" style="stroke:#181818;stroke-width:1;" width="10" x="157.7974" y="149.7266"/></g><g><title>solver.js</title><rect fill="#FFFFFF" height="186.6641" style="stroke:#181818;stroke-width:1;" width="10" x="535.0215" y="207.9922"/></g><g><title>hints.js</title><rect fill="#FFFFFF" height="14" style="stroke:#181818;stroke-width:1;" width="10" x="821.8271" y="423.7891"/></g><rect fill="none" height="59.2656" style="stroke:#000000;stroke-width:1.5;" width="246.0225" x="494.0029" y="307.2578"/><g><title>Player</title><rect fill="#000000" fill-opacity="0.00000" height="366.3281" width="8" x="25.7827" y="118.5938"/><line style="stroke:#181818;stroke-width:0.5;stroke-dasharray:5.0,5.0;" x1="29" x2="29" y1="118.5938" y2="484.9219"/></g><g><title>Actions.svelte</title><rect fill="#000000" fill-opacity="0.00000" height="366.3281" width="8" x="158.7974" y="118.5938"/><line style="stroke:#181818;stroke-width:0.5;stroke-dasharray:5.0,5.0;" x1="162.7871" x2="162.7871" y1="118.5938" y2="484.9219"/></g><g><title>solver.js</title><rect fill="#000000" fill-opacity="0.00000" height="366.3281" width="8" x="536.0215" y="118.5938"/><line style="stroke:#181818;stroke-width:0.5;stroke-dasharray:5.0,5.0;" x1="540.0029" x2="540.0029" y1="118.5938" y2="484.9219"/></g><g><title>userGrid.js</title><rect fill="#000000" fill-opacity="0.00000" height="366.3281" width="8" x="736.0254" y="118.5938"/><line style="stroke:#181818;stroke-width:0.5;stroke-dasharray:5.0,5.0;" x1="739.25" x2="739.25" y1="118.5938" y2="484.9219"/></g><g><title>hints.js</title><rect fill="#000000" fill-opacity="0.00000" height="366.3281" width="8" x="822.8271" y="118.5938"/><line style="stroke:#181818;stroke-width:0.5;stroke-dasharray:5.0,5.0;" x1="826.8008" x2="826.8008" y1="118.5938" y2="484.9219"/></g><g class="participant participant-head" data-participant="Player"><text fill="#000000" font-family="sans-serif" font-size="14" lengthAdjust="spacing" textLength="43.5654" x="5" y="115.292">Player</text><ellipse cx="29.7827" cy="50.7969" fill="#E2E2F0" rx="8" ry="8" style="stroke:#181818;stroke-width:0.5;"/><path d="M29.7827,58.7969 L29.7827,85.7969 M16.7827,66.7969 L42.7827,66.7969 M29.7827,85.7969 L16.7827,100.7969 M29.7827,85.7969 L42.7827,100.7969" fill="none" style="stroke:#181818;stroke-width:0.5;"/></g><g class="participant participant-tail" data-participant="Player"><text fill="#000000" font-family="sans-serif" font-size="14" lengthAdjust="spacing" textLength="43.5654" x="5" y="496.917">Player</text><ellipse cx="29.7827" cy="508.7188" fill="#E2E2F0" rx="8" ry="8" style="stroke:#181818;stroke-width:0.5;"/><path d="M29.7827,516.7188 L29.7827,543.7188 M16.7827,524.7188 L42.7827,524.7188 M29.7827,543.7188 L16.7827,558.7188 M29.7827,543.7188 L42.7827,558.7188" fill="none" style="stroke:#181818;stroke-width:0.5;"/></g><g class="participant participant-head" data-participant="Actions"><rect fill="#E2E2F0" height="30.2969" rx="2.5" ry="2.5" style="stroke:#181818;stroke-width:0.5;" width="112.0205" x="106.7871" y="87.2969"/><text fill="#000000" font-family="sans-serif" font-size="14" lengthAdjust="spacing" textLength="98.0205" x="113.7871" y="107.292">Actions.svelte</text></g><g class="participant participant-tail" data-participant="Actions"><rect fill="#E2E2F0" height="30.2969" rx="2.5" ry="2.5" style="stroke:#181818;stroke-width:0.5;" width="112.0205" x="106.7871" y="483.9219"/><text fill="#000000" font-family="sans-serif" font-size="14" lengthAdjust="spacing" textLength="98.0205" x="113.7871" y="503.917">Actions.svelte</text></g><g class="participant participant-head" data-participant="Solver"><rect fill="#E2E2F0" height="30.2969" rx="2.5" ry="2.5" style="stroke:#181818;stroke-width:0.5;" width="72.0371" x="504.0029" y="87.2969"/><text fill="#000000" font-family="sans-serif" font-size="14" lengthAdjust="spacing" textLength="58.0371" x="511.0029" y="107.292">solver.js</text></g><g class="participant participant-tail" data-participant="Solver"><rect fill="#E2E2F0" height="30.2969" rx="2.5" ry="2.5" style="stroke:#181818;stroke-width:0.5;" width="72.0371" x="504.0029" y="483.9219"/><text fill="#000000" font-family="sans-serif" font-size="14" lengthAdjust="spacing" textLength="58.0371" x="511.0029" y="503.917">solver.js</text></g><g class="participant participant-head" data-participant="UserGridStore"><rect fill="#E2E2F0" height="30.2969" rx="2.5" ry="2.5" style="stroke:#181818;stroke-width:0.5;" width="89.5508" x="695.25" y="87.2969"/><text fill="#000000" font-family="sans-serif" font-size="14" lengthAdjust="spacing" textLength="75.5508" x="702.25" y="107.292">userGrid.js</text></g><g class="participant participant-tail" data-participant="UserGridStore"><rect fill="#E2E2F0" height="30.2969" rx="2.5" ry="2.5" style="stroke:#181818;stroke-width:0.5;" width="89.5508" x="695.25" y="483.9219"/><text fill="#000000" font-family="sans-serif" font-size="14" lengthAdjust="spacing" textLength="75.5508" x="702.25" y="503.917">userGrid.js</text></g><g class="participant participant-head" data-participant="HintsStore"><rect fill="#E2E2F0" height="30.2969" rx="2.5" ry="2.5" style="stroke:#181818;stroke-width:0.5;" width="64.0527" x="794.8008" y="87.2969"/><text fill="#000000" font-family="sans-serif" font-size="14" lengthAdjust="spacing" textLength="50.0527" x="801.8008" y="107.292">hints.js</text></g><g class="participant participant-tail" data-participant="HintsStore"><rect fill="#E2E2F0" height="30.2969" rx="2.5" ry="2.5" style="stroke:#181818;stroke-width:0.5;" width="64.0527" x="794.8008" y="483.9219"/><text fill="#000000" font-family="sans-serif" font-size="14" lengthAdjust="spacing" textLength="50.0527" x="801.8008" y="503.917">hints.js</text></g><g><title>Actions.svelte</title><rect fill="#FFFFFF" height="317.1953" style="stroke:#181818;stroke-width:1;" width="10" x="157.7974" y="149.7266"/></g><g><title>solver.js</title><rect fill="#FFFFFF" height="186.6641" style="stroke:#181818;stroke-width:1;" width="10" x="535.0215" y="207.9922"/></g><g><title>hints.js</title><rect fill="#FFFFFF" height="14" style="stroke:#181818;stroke-width:1;" width="10" x="821.8271" y="423.7891"/></g><g class="message" data-participant-1="Player" data-participant-2="Actions"><polygon fill="#181818" points="145.7974,145.7266,155.7974,149.7266,145.7974,153.7266,149.7974,149.7266" style="stroke:#181818;stroke-width:1;"/><line style="stroke:#181818;stroke-width:1;" x1="29.7827" x2="151.7974" y1="149.7266" y2="149.7266"/><text fill="#000000" font-family="sans-serif" font-size="13" lengthAdjust="spacing" textLength="109.0146" x="36.7827" y="144.6606">&#28857;&#20987; "Learn" &#25353;&#38062;</text></g><g class="message" data-participant-1="Actions" data-participant-2="UserGridStore"><polygon fill="#181818" points="728.0254,174.8594,738.0254,178.8594,728.0254,182.8594,732.0254,178.8594" style="stroke:#181818;stroke-width:1;"/><line style="stroke:#181818;stroke-width:1;" x1="167.7974" x2="734.0254" y1="178.8594" y2="178.8594"/><text fill="#000000" font-family="sans-serif" font-size="13" lengthAdjust="spacing" textLength="81.5928" x="174.7974" y="173.7935">&#33719;&#21462;&#24403;&#21069; grid</text></g><g class="message" data-participant-1="Actions" data-participant-2="Solver"><polygon fill="#181818" points="523.0215,203.9922,533.0215,207.9922,523.0215,211.9922,527.0215,207.9922" style="stroke:#181818;stroke-width:1;"/><line style="stroke:#181818;stroke-width:1;" x1="167.7974" x2="529.0215" y1="207.9922" y2="207.9922"/><text fill="#000000" font-family="sans-serif" font-size="13" lengthAdjust="spacing" textLength="181.9048" x="174.7974" y="202.9263">possibleNumberSolver(grid)</text></g><g class="message" data-participant-1="Solver" data-participant-2="Solver"><line style="stroke:#181818;stroke-width:1;" x1="545.0215" x2="587.0215" y1="237.125" y2="237.125"/><line style="stroke:#181818;stroke-width:1;" x1="587.0215" x2="587.0215" y1="237.125" y2="250.125"/><line style="stroke:#181818;stroke-width:1;" x1="546.0215" x2="587.0215" y1="250.125" y2="250.125"/><polygon fill="#181818" points="556.0215,246.125,546.0215,250.125,556.0215,254.125,552.0215,250.125" style="stroke:#181818;stroke-width:1;"/><text fill="#000000" font-family="sans-serif" font-size="13" lengthAdjust="spacing" textLength="161.9858" x="552.0215" y="232.0591">getPossibleNumber(grid)</text></g><g class="message" data-participant-1="Solver" data-participant-2="Solver"><line style="stroke:#181818;stroke-width:1;" x1="545.0215" x2="587.0215" y1="279.2578" y2="279.2578"/><line style="stroke:#181818;stroke-width:1;" x1="587.0215" x2="587.0215" y1="279.2578" y2="292.2578"/><line style="stroke:#181818;stroke-width:1;" x1="546.0215" x2="587.0215" y1="292.2578" y2="292.2578"/><polygon fill="#181818" points="556.0215,288.2578,546.0215,292.2578,556.0215,296.2578,552.0215,292.2578" style="stroke:#181818;stroke-width:1;"/><text fill="#000000" font-family="sans-serif" font-size="13" lengthAdjust="spacing" textLength="161.3955" x="552.0215" y="274.1919">nakedSingle(candidates)</text></g><path d="M494.0029,307.2578 L563.4541,307.2578 L563.4541,314.3906 L553.4541,324.3906 L494.0029,324.3906 L494.0029,307.2578" fill="#EEEEEE" style="stroke:#000000;stroke-width:1.5;"/><rect fill="none" height="59.2656" style="stroke:#000000;stroke-width:1.5;" width="246.0225" x="494.0029" y="307.2578"/><text fill="#000000" font-family="sans-serif" font-size="13" font-weight="bold" lengthAdjust="spacing" textLength="24.4512" x="509.0029" y="320.3247">opt</text><text fill="#000000" font-family="sans-serif" font-size="11" font-weight="bold" lengthAdjust="spacing" textLength="123.417" x="578.4541" y="319.4683">[&#26410;&#25214;&#21040; nakedSingle]</text><g class="message" data-participant-1="Solver" data-participant-2="Solver"><line style="stroke:#181818;stroke-width:1;" x1="545.0215" x2="587.0215" y1="345.5234" y2="345.5234"/><line style="stroke:#181818;stroke-width:1;" x1="587.0215" x2="587.0215" y1="345.5234" y2="358.5234"/><line style="stroke:#181818;stroke-width:1;" x1="546.0215" x2="587.0215" y1="358.5234" y2="358.5234"/><polygon fill="#181818" points="556.0215,354.5234,546.0215,358.5234,556.0215,362.5234,552.0215,358.5234" style="stroke:#181818;stroke-width:1;"/><text fill="#000000" font-family="sans-serif" font-size="13" lengthAdjust="spacing" textLength="166.0039" x="552.0215" y="340.4575">hiddenSingle(candidates)</text></g><g class="message" data-participant-1="Solver" data-participant-2="Actions"><polygon fill="#181818" points="178.7974,390.6563,168.7974,394.6563,178.7974,398.6563,174.7974,394.6563" style="stroke:#181818;stroke-width:1;"/><line style="stroke:#181818;stroke-width:1;stroke-dasharray:2.0,2.0;" x1="172.7974" x2="539.0215" y1="394.6563" y2="394.6563"/><text fill="#000000" font-family="sans-serif" font-size="13" lengthAdjust="spacing" textLength="343.2241" x="184.7974" y="389.5903">&#36820;&#22238; move = {idx, value}, message = "nakedSingle"</text></g><g class="message" data-participant-1="Actions" data-participant-2="HintsStore"><polygon fill="#181818" points="809.8271,419.7891,819.8271,423.7891,809.8271,427.7891,813.8271,423.7891" style="stroke:#181818;stroke-width:1;"/><line style="stroke:#181818;stroke-width:1;" x1="167.7974" x2="815.8271" y1="423.7891" y2="423.7891"/><text fill="#000000" font-family="sans-serif" font-size="13" lengthAdjust="spacing" textLength="59.8774" x="174.7974" y="418.7231">useHint()</text></g><g class="message" data-participant-1="HintsStore" data-participant-2="Actions"><polygon fill="#181818" points="178.7974,433.7891,168.7974,437.7891,178.7974,441.7891,174.7974,437.7891" style="stroke:#181818;stroke-width:1;"/><line style="stroke:#181818;stroke-width:1;stroke-dasharray:2.0,2.0;" x1="172.7974" x2="825.8271" y1="437.7891" y2="437.7891"/></g><g class="message" data-participant-1="Actions" data-participant-2="UserGridStore"><polygon fill="#181818" points="728.0254,462.9219,738.0254,466.9219,728.0254,470.9219,732.0254,466.9219" style="stroke:#181818;stroke-width:1;"/><line style="stroke:#181818;stroke-width:1;" x1="162.7974" x2="734.0254" y1="466.9219" y2="466.9219"/><text fill="#000000" font-family="sans-serif" font-size="13" lengthAdjust="spacing" textLength="177.6455" x="169.7974" y="461.856">set(move.pos, move.value)</text></g><!--SRC=[TPBFIiD04CRlUOeXfnHg7w2Wu4aF8eNY0soxGxgQRafs6nJnqeijg14LFLH4GKG4_vrAgzQNSTFw5YPDQZTKSqbc-Cqtyyr4CkaWc6eGgFQ5wWwBC7xkXQ-jC3WUtGx0KeztN_thyFv6lGSvqp18LReUb1ooWvxH89vaLTOWN8AvN9NCvQ8WV7Gaca04fAai9rp7Hw-mAIP8UH9bYQP0RyLZTCfif74vQerPjCQu55DkDGuIo4WcX8MbwH156BNwQlyDp3Ka7ZSXFEXydpp5XfXF9FuEcxxZqapZQ3D7FHMSguzJrJa4EyhhR6Aa20rN25PnSBrPhw2NPAqOpirQfQQDvArNsoXB6O6qT9xaP0jfcN7RGQjAE6KqKXOvmsr822yVmivGjLzqoe3ecTUfCKgH_o64dCucrFSu_ZnJtIkekpx28kmokfq7dpXDtCj37OKWTfmtjTQcGN7ElBQxsU6A41q_3YrjNTfTPv_wJBgy_XFyVqg1qeeD5A9pvITM2XCBELqgBVy1]--></g></svg>