<svg xmlns="http://www.w3.org/2000/svg" xmlns:xlink="http://www.w3.org/1999/xlink" contentStyleType="text/css" data-diagram-type="SEQUENCE" height="740px" preserveAspectRatio="none" style="width:1134px;height:740px;background:#FFFFFF;" version="1.1" viewBox="0 0 1134 740" width="1134px" zoomAndPan="magnify"><title>&#24207;&#21015;&#22270;: &#35745;&#31639;&#21644;&#26174;&#31034;&#20505;&#36873;&#25968;</title><defs/><g><text fill="#000000" font-family="sans-serif" font-size="14" font-weight="bold" lengthAdjust="spacing" textLength="164.4727" x="485.9307" y="27.9951">&#24207;&#21015;&#22270;: &#35745;&#31639;&#21644;&#26174;&#31034;&#20505;&#36873;&#25968;</text><g><title>PossibleNumberSwitch.svelte</title><rect fill="#FFFFFF" height="499.6641" style="stroke:#181818;stroke-width:1;" width="10" x="246.0234" y="149.7266"/></g><g><title>possibleNumbers.js</title><rect fill="#FFFFFF" height="470.5313" style="stroke:#181818;stroke-width:1;" width="10" x="441.2842" y="178.8594"/></g><g><title>solver.js</title><rect fill="#FFFFFF" height="102.3984" style="stroke:#181818;stroke-width:1;" width="10" x="636.0513" y="290.3906"/></g><g><title>userGrid.js</title><rect fill="#FFFFFF" height="29.1328" style="stroke:#181818;stroke-width:1;" width="10" x="925.1572" y="232.125"/></g><g><title>Cell.svelte</title><rect fill="#FFFFFF" height="35.1328" style="stroke:#181818;stroke-width:1;" width="10" x="1023.334" y="464.0547"/></g><g><title>Cell.svelte</title><rect fill="#FFFFFF" height="35.1328" style="stroke:#181818;stroke-width:1;" width="10" x="1023.334" y="592.2578"/></g><rect fill="none" height="448.5313" style="stroke:#000000;stroke-width:1.5;" width="766.293" x="361.041" y="193.8594"/><rect fill="none" height="59.2656" style="stroke:#000000;stroke-width:1.5;" width="335.1245" x="595.0327" y="305.3906"/><g><title>Player</title><rect fill="#000000" fill-opacity="0.00000" height="540.7969" width="8" x="25.7827" y="118.5938"/><line style="stroke:#181818;stroke-width:0.5;stroke-dasharray:5.0,5.0;" x1="29" x2="29" y1="118.5938" y2="659.3906"/></g><g><title>PossibleNumberSwitch.svelte</title><rect fill="#000000" fill-opacity="0.00000" height="540.7969" width="8" x="247.0234" y="118.5938"/><line style="stroke:#181818;stroke-width:0.5;stroke-dasharray:5.0,5.0;" x1="251.0059" x2="251.0059" y1="118.5938" y2="659.3906"/></g><g><title>possibleNumbers.js</title><rect fill="#000000" fill-opacity="0.00000" height="540.7969" width="8" x="442.2842" y="118.5938"/><line style="stroke:#181818;stroke-width:0.5;stroke-dasharray:5.0,5.0;" x1="446.041" x2="446.041" y1="118.5938" y2="659.3906"/></g><g><title>solver.js</title><rect fill="#000000" fill-opacity="0.00000" height="540.7969" width="8" x="637.0513" y="118.5938"/><line style="stroke:#181818;stroke-width:0.5;stroke-dasharray:5.0,5.0;" x1="641.0327" x2="641.0327" y1="118.5938" y2="659.3906"/></g><g><title>userGrid.js</title><rect fill="#000000" fill-opacity="0.00000" height="540.7969" width="8" x="926.1572" y="118.5938"/><line style="stroke:#181818;stroke-width:0.5;stroke-dasharray:5.0,5.0;" x1="929.3818" x2="929.3818" y1="118.5938" y2="659.3906"/></g><g><title>Cell.svelte</title><rect fill="#000000" fill-opacity="0.00000" height="540.7969" width="8" x="1024.334" y="118.5938"/><line style="stroke:#181818;stroke-width:0.5;stroke-dasharray:5.0,5.0;" x1="1027.9326" x2="1027.9326" y1="118.5938" y2="659.3906"/></g><g class="participant participant-head" data-participant="Player"><text fill="#000000" font-family="sans-serif" font-size="14" lengthAdjust="spacing" textLength="43.5654" x="5" y="115.292">Player</text><ellipse cx="29.7827" cy="50.7969" fill="#E2E2F0" rx="8" ry="8" style="stroke:#181818;stroke-width:0.5;"/><path d="M29.7827,58.7969 L29.7827,85.7969 M16.7827,66.7969 L42.7827,66.7969 M29.7827,85.7969 L16.7827,100.7969 M29.7827,85.7969 L42.7827,100.7969" fill="none" style="stroke:#181818;stroke-width:0.5;"/></g><g class="participant participant-tail" data-participant="Player"><text fill="#000000" font-family="sans-serif" font-size="14" lengthAdjust="spacing" textLength="43.5654" x="5" y="671.3857">Player</text><ellipse cx="29.7827" cy="683.1875" fill="#E2E2F0" rx="8" ry="8" style="stroke:#181818;stroke-width:0.5;"/><path d="M29.7827,691.1875 L29.7827,718.1875 M16.7827,699.1875 L42.7827,699.1875 M29.7827,718.1875 L16.7827,733.1875 M29.7827,718.1875 L42.7827,733.1875" fill="none" style="stroke:#181818;stroke-width:0.5;"/></g><g class="participant participant-head" data-participant="Switch"><rect fill="#E2E2F0" height="30.2969" rx="2.5" ry="2.5" style="stroke:#181818;stroke-width:0.5;" width="220.0352" x="141.0059" y="87.2969"/><text fill="#000000" font-family="sans-serif" font-size="14" lengthAdjust="spacing" textLength="206.0352" x="148.0059" y="107.292">PossibleNumberSwitch.svelte</text></g><g class="participant participant-tail" data-participant="Switch"><rect fill="#E2E2F0" height="30.2969" rx="2.5" ry="2.5" style="stroke:#181818;stroke-width:0.5;" width="220.0352" x="141.0059" y="658.3906"/><text fill="#000000" font-family="sans-serif" font-size="14" lengthAdjust="spacing" textLength="206.0352" x="148.0059" y="678.3857">PossibleNumberSwitch.svelte</text></g><g class="participant participant-head" data-participant="PnStore"><rect fill="#E2E2F0" height="30.2969" rx="2.5" ry="2.5" style="stroke:#181818;stroke-width:0.5;" width="150.4863" x="371.041" y="87.2969"/><text fill="#000000" font-family="sans-serif" font-size="14" lengthAdjust="spacing" textLength="136.4863" x="378.041" y="107.292">possibleNumbers.js</text></g><g class="participant participant-tail" data-participant="PnStore"><rect fill="#E2E2F0" height="30.2969" rx="2.5" ry="2.5" style="stroke:#181818;stroke-width:0.5;" width="150.4863" x="371.041" y="658.3906"/><text fill="#000000" font-family="sans-serif" font-size="14" lengthAdjust="spacing" textLength="136.4863" x="378.041" y="678.3857">possibleNumbers.js</text></g><g class="participant participant-head" data-participant="Solver"><rect fill="#E2E2F0" height="30.2969" rx="2.5" ry="2.5" style="stroke:#181818;stroke-width:0.5;" width="72.0371" x="605.0327" y="87.2969"/><text fill="#000000" font-family="sans-serif" font-size="14" lengthAdjust="spacing" textLength="58.0371" x="612.0327" y="107.292">solver.js</text></g><g class="participant participant-tail" data-participant="Solver"><rect fill="#E2E2F0" height="30.2969" rx="2.5" ry="2.5" style="stroke:#181818;stroke-width:0.5;" width="72.0371" x="605.0327" y="658.3906"/><text fill="#000000" font-family="sans-serif" font-size="14" lengthAdjust="spacing" textLength="58.0371" x="612.0327" y="678.3857">solver.js</text></g><g class="participant participant-head" data-participant="UserGridStore"><rect fill="#E2E2F0" height="30.2969" rx="2.5" ry="2.5" style="stroke:#181818;stroke-width:0.5;" width="89.5508" x="885.3818" y="87.2969"/><text fill="#000000" font-family="sans-serif" font-size="14" lengthAdjust="spacing" textLength="75.5508" x="892.3818" y="107.292">userGrid.js</text></g><g class="participant participant-tail" data-participant="UserGridStore"><rect fill="#E2E2F0" height="30.2969" rx="2.5" ry="2.5" style="stroke:#181818;stroke-width:0.5;" width="89.5508" x="885.3818" y="658.3906"/><text fill="#000000" font-family="sans-serif" font-size="14" lengthAdjust="spacing" textLength="75.5508" x="892.3818" y="678.3857">userGrid.js</text></g><g class="participant participant-head" data-participant="Cell"><rect fill="#E2E2F0" height="30.2969" rx="2.5" ry="2.5" style="stroke:#181818;stroke-width:0.5;" width="86.8027" x="984.9326" y="87.2969"/><text fill="#000000" font-family="sans-serif" font-size="14" lengthAdjust="spacing" textLength="72.8027" x="991.9326" y="107.292">Cell.svelte</text></g><g class="participant participant-tail" data-participant="Cell"><rect fill="#E2E2F0" height="30.2969" rx="2.5" ry="2.5" style="stroke:#181818;stroke-width:0.5;" width="86.8027" x="984.9326" y="658.3906"/><text fill="#000000" font-family="sans-serif" font-size="14" lengthAdjust="spacing" textLength="72.8027" x="991.9326" y="678.3857">Cell.svelte</text></g><g><title>PossibleNumberSwitch.svelte</title><rect fill="#FFFFFF" height="499.6641" style="stroke:#181818;stroke-width:1;" width="10" x="246.0234" y="149.7266"/></g><g><title>possibleNumbers.js</title><rect fill="#FFFFFF" height="470.5313" style="stroke:#181818;stroke-width:1;" width="10" x="441.2842" y="178.8594"/></g><g><title>solver.js</title><rect fill="#FFFFFF" height="102.3984" style="stroke:#181818;stroke-width:1;" width="10" x="636.0513" y="290.3906"/></g><g><title>userGrid.js</title><rect fill="#FFFFFF" height="29.1328" style="stroke:#181818;stroke-width:1;" width="10" x="925.1572" y="232.125"/></g><g><title>Cell.svelte</title><rect fill="#FFFFFF" height="35.1328" style="stroke:#181818;stroke-width:1;" width="10" x="1023.334" y="464.0547"/></g><g><title>Cell.svelte</title><rect fill="#FFFFFF" height="35.1328" style="stroke:#181818;stroke-width:1;" width="10" x="1023.334" y="592.2578"/></g><g class="message" data-participant-1="Player" data-participant-2="Switch"><polygon fill="#181818" points="234.0234,145.7266,244.0234,149.7266,234.0234,153.7266,238.0234,149.7266" style="stroke:#181818;stroke-width:1;"/><line style="stroke:#181818;stroke-width:1;" x1="29.7827" x2="240.0234" y1="149.7266" y2="149.7266"/><text fill="#000000" font-family="sans-serif" font-size="13" lengthAdjust="spacing" textLength="197.2407" x="36.7827" y="144.6606">&#28857;&#20987; "Show Possible Numbers"</text></g><g class="message" data-participant-1="Switch" data-participant-2="PnStore"><polygon fill="#181818" points="429.2842,174.8594,439.2842,178.8594,429.2842,182.8594,433.2842,178.8594" style="stroke:#181818;stroke-width:1;"/><line style="stroke:#181818;stroke-width:1;" x1="256.0234" x2="435.2842" y1="178.8594" y2="178.8594"/><text fill="#000000" font-family="sans-serif" font-size="13" lengthAdjust="spacing" textLength="51.3081" x="263.0234" y="173.7935">toggle()</text></g><path d="M361.041,193.8594 L425.4839,193.8594 L425.4839,200.9922 L415.4839,210.9922 L361.041,210.9922 L361.041,193.8594" fill="#EEEEEE" style="stroke:#000000;stroke-width:1.5;"/><rect fill="none" height="448.5313" style="stroke:#000000;stroke-width:1.5;" width="766.293" x="361.041" y="193.8594"/><text fill="#000000" font-family="sans-serif" font-size="13" font-weight="bold" lengthAdjust="spacing" textLength="19.4429" x="376.041" y="206.9263">alt</text><text fill="#000000" font-family="sans-serif" font-size="11" font-weight="bold" lengthAdjust="spacing" textLength="76.5166" x="440.4839" y="206.0698">["&#24320;&#20851;&#34987;&#28608;&#27963;"]</text><g class="message" data-participant-1="PnStore" data-participant-2="UserGridStore"><polygon fill="#181818" points="913.1572,228.125,923.1572,232.125,913.1572,236.125,917.1572,232.125" style="stroke:#181818;stroke-width:1;"/><line style="stroke:#181818;stroke-width:1;" x1="451.2842" x2="919.1572" y1="232.125" y2="232.125"/><text fill="#000000" font-family="sans-serif" font-size="13" lengthAdjust="spacing" textLength="87.1279" x="458.2842" y="227.0591">get(userGrid)</text></g><g class="message" data-participant-1="UserGridStore" data-participant-2="PnStore"><polygon fill="#181818" points="462.2842,257.2578,452.2842,261.2578,462.2842,265.2578,458.2842,261.2578" style="stroke:#181818;stroke-width:1;"/><line style="stroke:#181818;stroke-width:1;stroke-dasharray:2.0,2.0;" x1="456.2842" x2="929.1572" y1="261.2578" y2="261.2578"/><text fill="#000000" font-family="sans-serif" font-size="13" lengthAdjust="spacing" textLength="117.7363" x="468.2842" y="256.1919">&#36820;&#22238;&#24403;&#21069;&#26827;&#30424; (grid)</text></g><g class="message" data-participant-1="PnStore" data-participant-2="Solver"><polygon fill="#181818" points="624.0513,286.3906,634.0513,290.3906,624.0513,294.3906,628.0513,290.3906" style="stroke:#181818;stroke-width:1;"/><line style="stroke:#181818;stroke-width:1;" x1="451.2842" x2="630.0513" y1="290.3906" y2="290.3906"/><text fill="#000000" font-family="sans-serif" font-size="13" lengthAdjust="spacing" textLength="161.9858" x="458.2842" y="285.3247">getPossibleNumber(grid)</text></g><path d="M595.0327,305.3906 L671.6567,305.3906 L671.6567,312.5234 L661.6567,322.5234 L595.0327,322.5234 L595.0327,305.3906" fill="#EEEEEE" style="stroke:#000000;stroke-width:1.5;"/><rect fill="none" height="59.2656" style="stroke:#000000;stroke-width:1.5;" width="335.1245" x="595.0327" y="305.3906"/><text fill="#000000" font-family="sans-serif" font-size="13" font-weight="bold" lengthAdjust="spacing" textLength="31.624" x="610.0327" y="318.4575">loop</text><text fill="#000000" font-family="sans-serif" font-size="11" font-weight="bold" lengthAdjust="spacing" textLength="129.293" x="686.6567" y="317.6011">[for each empty cell]</text><g class="message" data-participant-1="Solver" data-participant-2="Solver"><line style="stroke:#181818;stroke-width:1;" x1="646.0513" x2="688.0513" y1="343.6563" y2="343.6563"/><line style="stroke:#181818;stroke-width:1;" x1="688.0513" x2="688.0513" y1="343.6563" y2="356.6563"/><line style="stroke:#181818;stroke-width:1;" x1="647.0513" x2="688.0513" y1="356.6563" y2="356.6563"/><polygon fill="#181818" points="657.0513,352.6563,647.0513,356.6563,657.0513,360.6563,653.0513,356.6563" style="stroke:#181818;stroke-width:1;"/><text fill="#000000" font-family="sans-serif" font-size="13" lengthAdjust="spacing" textLength="255.106" x="653.0513" y="338.5903">getOnePossibleNumber(grid, cellIndex)</text></g><g class="message" data-participant-1="Solver" data-participant-2="PnStore"><polygon fill="#181818" points="462.2842,388.7891,452.2842,392.7891,462.2842,396.7891,458.2842,392.7891" style="stroke:#181818;stroke-width:1;"/><line style="stroke:#181818;stroke-width:1;stroke-dasharray:2.0,2.0;" x1="456.2842" x2="640.0513" y1="392.7891" y2="392.7891"/><text fill="#000000" font-family="sans-serif" font-size="13" lengthAdjust="spacing" textLength="160.7671" x="468.2842" y="387.7231">&#36820;&#22238;&#25152;&#26377;&#31354;&#26684;&#30340;&#20505;&#36873;&#25968; (pn)</text></g><g class="message" data-participant-1="PnStore" data-participant-2="PnStore"><line style="stroke:#181818;stroke-width:1;" x1="451.2842" x2="493.2842" y1="421.9219" y2="421.9219"/><line style="stroke:#181818;stroke-width:1;" x1="493.2842" x2="493.2842" y1="421.9219" y2="434.9219"/><line style="stroke:#181818;stroke-width:1;" x1="452.2842" x2="493.2842" y1="434.9219" y2="434.9219"/><polygon fill="#181818" points="462.2842,430.9219,452.2842,434.9219,462.2842,438.9219,458.2842,434.9219" style="stroke:#181818;stroke-width:1;"/><text fill="#000000" font-family="sans-serif" font-size="13" lengthAdjust="spacing" textLength="68.5356" x="458.2842" y="416.856">fresh(grid)</text></g><path d="M548.5356,409.2891 L548.5356,434.2891 L723.5356,434.2891 L723.5356,419.2891 L713.5356,409.2891 L548.5356,409.2891" fill="#FEFFDD" style="stroke:#181818;stroke-width:0.5;"/><path d="M713.5356,409.2891 L713.5356,419.2891 L723.5356,419.2891 L713.5356,409.2891" fill="#FEFFDD" style="stroke:#181818;stroke-width:0.5;"/><text fill="#000000" font-family="sans-serif" font-size="13" lengthAdjust="spacing" textLength="154.2988" x="554.5356" y="426.356">&#26684;&#24335;&#21270;&#20505;&#36873;&#25968;&#24182;&#26356;&#26032; store</text><g class="message" data-participant-1="PnStore" data-participant-2="Cell"><polygon fill="#181818" points="1011.334,460.0547,1021.334,464.0547,1011.334,468.0547,1015.334,464.0547" style="stroke:#181818;stroke-width:1;"/><line style="stroke:#181818;stroke-width:1;" x1="451.2842" x2="1017.334" y1="464.0547" y2="464.0547"/><text fill="#000000" font-family="sans-serif" font-size="13" lengthAdjust="spacing" textLength="119.9263" x="458.2842" y="458.9888">(Svelte &#21709;&#24212;&#24335;&#26356;&#26032;)</text></g><g class="message" data-participant-1="Cell" data-participant-2="Cell"><line style="stroke:#181818;stroke-width:1;" x1="1033.334" x2="1075.334" y1="498.1875" y2="498.1875"/><line style="stroke:#181818;stroke-width:1;" x1="1075.334" x2="1075.334" y1="498.1875" y2="511.1875"/><line style="stroke:#181818;stroke-width:1;" x1="1028.334" x2="1075.334" y1="511.1875" y2="511.1875"/><polygon fill="#181818" points="1038.334,507.1875,1028.334,511.1875,1038.334,515.1875,1034.334,511.1875" style="stroke:#181818;stroke-width:1;"/><text fill="#000000" font-family="sans-serif" font-size="13" lengthAdjust="spacing" textLength="65" x="1040.334" y="493.1216">&#26174;&#31034;&#20505;&#36873;&#25968;</text></g><line style="stroke:#000000;stroke-width:1;stroke-dasharray:2.0,2.0;" x1="361.041" x2="1127.334" y1="515.1875" y2="515.1875"/><text fill="#000000" font-family="sans-serif" font-size="11" font-weight="bold" lengthAdjust="spacing" textLength="76.5166" x="366.041" y="525.3979">["&#24320;&#20851;&#34987;&#20851;&#38381;"]</text><g class="message" data-participant-1="PnStore" data-participant-2="PnStore"><line style="stroke:#181818;stroke-width:1;" x1="451.2842" x2="493.2842" y1="550.125" y2="550.125"/><line style="stroke:#181818;stroke-width:1;" x1="493.2842" x2="493.2842" y1="550.125" y2="563.125"/><line style="stroke:#181818;stroke-width:1;" x1="452.2842" x2="493.2842" y1="563.125" y2="563.125"/><polygon fill="#181818" points="462.2842,559.125,452.2842,563.125,462.2842,567.125,458.2842,563.125" style="stroke:#181818;stroke-width:1;"/><text fill="#000000" font-family="sans-serif" font-size="13" lengthAdjust="spacing" textLength="27.2505" x="458.2842" y="545.0591">off()</text></g><g class="message" data-participant-1="PnStore" data-participant-2="Cell"><polygon fill="#181818" points="1011.334,588.2578,1021.334,592.2578,1011.334,596.2578,1015.334,592.2578" style="stroke:#181818;stroke-width:1;"/><line style="stroke:#181818;stroke-width:1;" x1="451.2842" x2="1017.334" y1="592.2578" y2="592.2578"/><text fill="#000000" font-family="sans-serif" font-size="13" lengthAdjust="spacing" textLength="119.9263" x="458.2842" y="587.1919">(Svelte &#21709;&#24212;&#24335;&#26356;&#26032;)</text></g><g class="message" data-participant-1="Cell" data-participant-2="Cell"><line style="stroke:#181818;stroke-width:1;" x1="1033.334" x2="1075.334" y1="626.3906" y2="626.3906"/><line style="stroke:#181818;stroke-width:1;" x1="1075.334" x2="1075.334" y1="626.3906" y2="639.3906"/><line style="stroke:#181818;stroke-width:1;" x1="1028.334" x2="1075.334" y1="639.3906" y2="639.3906"/><polygon fill="#181818" points="1038.334,635.3906,1028.334,639.3906,1038.334,643.3906,1034.334,639.3906" style="stroke:#181818;stroke-width:1;"/><text fill="#000000" font-family="sans-serif" font-size="13" lengthAdjust="spacing" textLength="65" x="1040.334" y="621.3247">&#38544;&#34255;&#20505;&#36873;&#25968;</text></g><!--SRC=[jLFDJjj04BxlKunySgJ20_ZG2uUgbpQIrGSmoSHsjTYMTmbmiwfMRLHGga899QZgtwMgYf10I8G0JxFhv2sw_erjWdhg7cpl-fjllczcbhkS8cXYCXJlHc9yQy3iz5jyEX8VT-NHRVnp8gBFysWWFvrfX5WTxeVGfjOEXYImGkvstC3oE6Xjdp5tdUAppOrr3CqjbtUSLTP7ob43Yq5sKey9QZ5izILBeMtFL5cmZcK-xMDOGCnqLqTiCWoVX6wtmBp8zql8rf3IghXaJqXc2rOUvs8DY5zTYRVNe9cElmM5GyZbQaartBx5iJ2NlHA2t881tBTjYdfhWItS4Oig9M8QYJVdi- -_vLqaBwur0chba8IePi806xbU-6obs9AtRZVvLJk1bQgisTs167yHD_jYi2T_l8_7Hw3R9MSN7s1jgilQaCggzxz2jYXIrhFaZFf-03qrIIgH0xWHy1te93s0V6NOHehd7Yx9yYYDVEfrSJjBY5wNL3dk-vQ3I9uCubyJ-NKQ7xyk1npqmBjNWLnsqtf9sGkHEHM_dg-2GjTsk06ANqo7OlUmJ26kBkNuGXwU0LjQqMGI3T3DT3P1xE-9oO6Yo68Q1LqhAfPyB88RjxRf9ur2oh0oVEev7_tH7lJeztfwwpz8dHz_c8s6_v2gsaagXyNzgROelNT_0G00]--></g></svg>