<svg xmlns="http://www.w3.org/2000/svg" xmlns:xlink="http://www.w3.org/1999/xlink" contentStyleType="text/css" data-diagram-type="SEQUENCE" height="577px" preserveAspectRatio="none" style="width:1018px;height:577px;background:#FFFFFF;" version="1.1" viewBox="0 0 1018 577" width="1018px" zoomAndPan="magnify"><title>&#24207;&#21015;&#22270;: &#22238;&#28335;&#21040;&#20998;&#25903;&#28857;</title><defs/><g><text fill="#000000" font-family="sans-serif" font-size="14" font-weight="bold" lengthAdjust="spacing" textLength="136.4727" x="439.9294" y="27.9951">&#24207;&#21015;&#22270;: &#22238;&#28335;&#21040;&#20998;&#25903;&#28857;</text><g><title>Actions.svelte</title><rect fill="#FFFFFF" height="329.3281" style="stroke:#181818;stroke-width:1;" width="10" x="185.6509" y="149.7266"/></g><g><title>history.js</title><rect fill="#FFFFFF" height="29.1328" style="stroke:#181818;stroke-width:1;" width="10" x="482.6743" y="237.125"/></g><g><title>history.js</title><rect fill="#FFFFFF" height="29.1328" style="stroke:#181818;stroke-width:1;" width="10" x="482.6743" y="361.6563"/></g><g><title>branchPoints.js</title><rect fill="#FFFFFF" height="29.1328" style="stroke:#181818;stroke-width:1;" width="10" x="707.9502" y="178.8594"/></g><g><title>branchPoints.js</title><rect fill="#FFFFFF" height="30" style="stroke:#181818;stroke-width:1;" width="10" x="707.9502" y="419.9219"/></g><rect fill="none" height="52.2656" style="stroke:#000000;stroke-width:1.5;" width="848.5112" x="124.6406" y="281.2578"/><g><title>Player</title><rect fill="#000000" fill-opacity="0.00000" height="378.4609" width="8" x="25.7827" y="118.5938"/><line style="stroke:#181818;stroke-width:0.5;stroke-dasharray:5.0,5.0;" x1="29" x2="29" y1="118.5938" y2="497.0547"/></g><g><title>Actions.svelte</title><rect fill="#000000" fill-opacity="0.00000" height="378.4609" width="8" x="186.6509" y="118.5938"/><line style="stroke:#181818;stroke-width:0.5;stroke-dasharray:5.0,5.0;" x1="190.6406" x2="190.6406" y1="118.5938" y2="497.0547"/></g><g><title>history.js</title><rect fill="#000000" fill-opacity="0.00000" height="378.4609" width="8" x="483.6743" y="118.5938"/><line style="stroke:#181818;stroke-width:0.5;stroke-dasharray:5.0,5.0;" x1="486.7813" x2="486.7813" y1="118.5938" y2="497.0547"/></g><g><title>branchPoints.js</title><rect fill="#000000" fill-opacity="0.00000" height="378.4609" width="8" x="708.9502" y="118.5938"/><line style="stroke:#181818;stroke-width:0.5;stroke-dasharray:5.0,5.0;" x1="712.5239" x2="712.5239" y1="118.5938" y2="497.0547"/></g><g><title>userGrid.js</title><rect fill="#000000" fill-opacity="0.00000" height="378.4609" width="8" x="824.1519" y="118.5938"/><line style="stroke:#181818;stroke-width:0.5;stroke-dasharray:5.0,5.0;" x1="827.3765" x2="827.3765" y1="118.5938" y2="497.0547"/></g><g><title>wrongNumber.js</title><rect fill="#000000" fill-opacity="0.00000" height="378.4609" width="8" x="943.6294" y="118.5938"/><line style="stroke:#181818;stroke-width:0.5;stroke-dasharray:5.0,5.0;" x1="946.9272" x2="946.9272" y1="118.5938" y2="497.0547"/></g><g class="participant participant-head" data-participant="Player"><text fill="#000000" font-family="sans-serif" font-size="14" lengthAdjust="spacing" textLength="43.5654" x="5" y="115.292">Player</text><ellipse cx="29.7827" cy="50.7969" fill="#E2E2F0" rx="8" ry="8" style="stroke:#181818;stroke-width:0.5;"/><path d="M29.7827,58.7969 L29.7827,85.7969 M16.7827,66.7969 L42.7827,66.7969 M29.7827,85.7969 L16.7827,100.7969 M29.7827,85.7969 L42.7827,100.7969" fill="none" style="stroke:#181818;stroke-width:0.5;"/></g><g class="participant participant-tail" data-participant="Player"><text fill="#000000" font-family="sans-serif" font-size="14" lengthAdjust="spacing" textLength="43.5654" x="5" y="509.0498">Player</text><ellipse cx="29.7827" cy="520.8516" fill="#E2E2F0" rx="8" ry="8" style="stroke:#181818;stroke-width:0.5;"/><path d="M29.7827,528.8516 L29.7827,555.8516 M16.7827,536.8516 L42.7827,536.8516 M29.7827,555.8516 L16.7827,570.8516 M29.7827,555.8516 L42.7827,570.8516" fill="none" style="stroke:#181818;stroke-width:0.5;"/></g><g class="participant participant-head" data-participant="Actions"><rect fill="#E2E2F0" height="30.2969" rx="2.5" ry="2.5" style="stroke:#181818;stroke-width:0.5;" width="112.0205" x="134.6406" y="87.2969"/><text fill="#000000" font-family="sans-serif" font-size="14" lengthAdjust="spacing" textLength="98.0205" x="141.6406" y="107.292">Actions.svelte</text></g><g class="participant participant-tail" data-participant="Actions"><rect fill="#E2E2F0" height="30.2969" rx="2.5" ry="2.5" style="stroke:#181818;stroke-width:0.5;" width="112.0205" x="134.6406" y="496.0547"/><text fill="#000000" font-family="sans-serif" font-size="14" lengthAdjust="spacing" textLength="98.0205" x="141.6406" y="516.0498">Actions.svelte</text></g><g class="participant participant-head" data-participant="HistoryStore"><rect fill="#E2E2F0" height="30.2969" rx="2.5" ry="2.5" style="stroke:#181818;stroke-width:0.5;" width="77.7861" x="448.7813" y="87.2969"/><text fill="#000000" font-family="sans-serif" font-size="14" lengthAdjust="spacing" textLength="63.7861" x="455.7813" y="107.292">history.js</text></g><g class="participant participant-tail" data-participant="HistoryStore"><rect fill="#E2E2F0" height="30.2969" rx="2.5" ry="2.5" style="stroke:#181818;stroke-width:0.5;" width="77.7861" x="448.7813" y="496.0547"/><text fill="#000000" font-family="sans-serif" font-size="14" lengthAdjust="spacing" textLength="63.7861" x="455.7813" y="516.0498">history.js</text></g><g class="participant participant-head" data-participant="BranchStore"><rect fill="#E2E2F0" height="30.2969" rx="2.5" ry="2.5" style="stroke:#181818;stroke-width:0.5;" width="120.8525" x="652.5239" y="87.2969"/><text fill="#000000" font-family="sans-serif" font-size="14" lengthAdjust="spacing" textLength="106.8525" x="659.5239" y="107.292">branchPoints.js</text></g><g class="participant participant-tail" data-participant="BranchStore"><rect fill="#E2E2F0" height="30.2969" rx="2.5" ry="2.5" style="stroke:#181818;stroke-width:0.5;" width="120.8525" x="652.5239" y="496.0547"/><text fill="#000000" font-family="sans-serif" font-size="14" lengthAdjust="spacing" textLength="106.8525" x="659.5239" y="516.0498">branchPoints.js</text></g><g class="participant participant-head" data-participant="UserGridStore"><rect fill="#E2E2F0" height="30.2969" rx="2.5" ry="2.5" style="stroke:#181818;stroke-width:0.5;" width="89.5508" x="783.3765" y="87.2969"/><text fill="#000000" font-family="sans-serif" font-size="14" lengthAdjust="spacing" textLength="75.5508" x="790.3765" y="107.292">userGrid.js</text></g><g class="participant participant-tail" data-participant="UserGridStore"><rect fill="#E2E2F0" height="30.2969" rx="2.5" ry="2.5" style="stroke:#181818;stroke-width:0.5;" width="89.5508" x="783.3765" y="496.0547"/><text fill="#000000" font-family="sans-serif" font-size="14" lengthAdjust="spacing" textLength="75.5508" x="790.3765" y="516.0498">userGrid.js</text></g><g class="participant participant-head" data-participant="WrongNumberStore"><rect fill="#E2E2F0" height="30.2969" rx="2.5" ry="2.5" style="stroke:#181818;stroke-width:0.5;" width="129.4043" x="882.9272" y="87.2969"/><text fill="#000000" font-family="sans-serif" font-size="14" lengthAdjust="spacing" textLength="115.4043" x="889.9272" y="107.292">wrongNumber.js</text></g><g class="participant participant-tail" data-participant="WrongNumberStore"><rect fill="#E2E2F0" height="30.2969" rx="2.5" ry="2.5" style="stroke:#181818;stroke-width:0.5;" width="129.4043" x="882.9272" y="496.0547"/><text fill="#000000" font-family="sans-serif" font-size="14" lengthAdjust="spacing" textLength="115.4043" x="889.9272" y="516.0498">wrongNumber.js</text></g><g><title>Actions.svelte</title><rect fill="#FFFFFF" height="329.3281" style="stroke:#181818;stroke-width:1;" width="10" x="185.6509" y="149.7266"/></g><g><title>history.js</title><rect fill="#FFFFFF" height="29.1328" style="stroke:#181818;stroke-width:1;" width="10" x="482.6743" y="237.125"/></g><g><title>history.js</title><rect fill="#FFFFFF" height="29.1328" style="stroke:#181818;stroke-width:1;" width="10" x="482.6743" y="361.6563"/></g><g><title>branchPoints.js</title><rect fill="#FFFFFF" height="29.1328" style="stroke:#181818;stroke-width:1;" width="10" x="707.9502" y="178.8594"/></g><g><title>branchPoints.js</title><rect fill="#FFFFFF" height="30" style="stroke:#181818;stroke-width:1;" width="10" x="707.9502" y="419.9219"/></g><g class="message" data-participant-1="Player" data-participant-2="Actions"><polygon fill="#181818" points="173.6509,145.7266,183.6509,149.7266,173.6509,153.7266,177.6509,149.7266" style="stroke:#181818;stroke-width:1;"/><line style="stroke:#181818;stroke-width:1;" x1="29.7827" x2="179.6509" y1="149.7266" y2="149.7266"/><text fill="#000000" font-family="sans-serif" font-size="13" lengthAdjust="spacing" textLength="136.8682" x="36.7827" y="144.6606">&#28857;&#20987; "Backtrack" &#25353;&#38062;</text></g><g class="message" data-participant-1="Actions" data-participant-2="BranchStore"><polygon fill="#181818" points="695.9502,174.8594,705.9502,178.8594,695.9502,182.8594,699.9502,178.8594" style="stroke:#181818;stroke-width:1;"/><line style="stroke:#181818;stroke-width:1;" x1="195.6509" x2="701.9502" y1="178.8594" y2="178.8594"/><text fill="#000000" font-family="sans-serif" font-size="13" lengthAdjust="spacing" textLength="230.1787" x="202.6509" y="173.7935">&#33719;&#21462;&#26368;&#21518;&#19968;&#20010;&#20998;&#25903;&#28857; (lastBranchStep)</text></g><g class="message" data-participant-1="BranchStore" data-participant-2="Actions"><polygon fill="#181818" points="206.6509,203.9922,196.6509,207.9922,206.6509,211.9922,202.6509,207.9922" style="stroke:#181818;stroke-width:1;"/><line style="stroke:#181818;stroke-width:1;stroke-dasharray:2.0,2.0;" x1="200.6509" x2="711.9502" y1="207.9922" y2="207.9922"/><text fill="#000000" font-family="sans-serif" font-size="13" lengthAdjust="spacing" textLength="88.3848" x="212.6509" y="202.9263">&#36820;&#22238; step &#32034;&#24341;</text></g><g class="message" data-participant-1="Actions" data-participant-2="HistoryStore"><polygon fill="#181818" points="470.6743,233.125,480.6743,237.125,470.6743,241.125,474.6743,237.125" style="stroke:#181818;stroke-width:1;"/><line style="stroke:#181818;stroke-width:1;" x1="195.6509" x2="476.6743" y1="237.125" y2="237.125"/><text fill="#000000" font-family="sans-serif" font-size="13" lengthAdjust="spacing" textLength="268.0234" x="202.6509" y="232.0591">&#33719;&#21462;&#20174;&#20998;&#25903;&#28857;&#33267;&#20170;&#30340;&#21382;&#21490;&#35760;&#24405; (stepsToUndo)</text></g><g class="message" data-participant-1="HistoryStore" data-participant-2="Actions"><polygon fill="#181818" points="206.6509,262.2578,196.6509,266.2578,206.6509,270.2578,202.6509,266.2578" style="stroke:#181818;stroke-width:1;"/><line style="stroke:#181818;stroke-width:1;stroke-dasharray:2.0,2.0;" x1="200.6509" x2="486.6743" y1="266.2578" y2="266.2578"/><text fill="#000000" font-family="sans-serif" font-size="13" lengthAdjust="spacing" textLength="78" x="212.6509" y="261.1919">&#36820;&#22238;&#25805;&#20316;&#21015;&#34920;</text></g><path d="M124.6406,281.2578 L201.2646,281.2578 L201.2646,288.3906 L191.2646,298.3906 L124.6406,298.3906 L124.6406,281.2578" fill="#EEEEEE" style="stroke:#000000;stroke-width:1.5;"/><rect fill="none" height="52.2656" style="stroke:#000000;stroke-width:1.5;" width="848.5112" x="124.6406" y="281.2578"/><text fill="#000000" font-family="sans-serif" font-size="13" font-weight="bold" lengthAdjust="spacing" textLength="31.624" x="139.6406" y="294.3247">loop</text><text fill="#000000" font-family="sans-serif" font-size="11" font-weight="bold" lengthAdjust="spacing" textLength="109.0547" x="216.2646" y="293.4683">[&#23545;&#27599;&#20010;&#35201;&#25764;&#38144;&#30340;&#25805;&#20316;]</text><g class="message" data-participant-1="Actions" data-participant-2="UserGridStore"><polygon fill="#181818" points="816.1519,318.5234,826.1519,322.5234,816.1519,326.5234,820.1519,322.5234" style="stroke:#181818;stroke-width:1;"/><line style="stroke:#181818;stroke-width:1;" x1="195.6509" x2="822.1519" y1="322.5234" y2="322.5234"/><text fill="#000000" font-family="sans-serif" font-size="13" lengthAdjust="spacing" textLength="69.5259" x="202.6509" y="317.4575">set(pos, 0)</text></g><path d="M833,303.3906 L833,328.3906 L958,328.3906 L958,313.3906 L948,303.3906 L833,303.3906" fill="#FEFFDD" style="stroke:#181818;stroke-width:0.5;"/><path d="M948,303.3906 L948,313.3906 L958,313.3906 L948,303.3906" fill="#FEFFDD" style="stroke:#181818;stroke-width:0.5;"/><text fill="#000000" font-family="sans-serif" font-size="13" lengthAdjust="spacing" textLength="104" x="839" y="320.4575">&#23558;&#21333;&#20803;&#26684;&#24674;&#22797;&#20026;&#31354;</text><g class="message" data-participant-1="Actions" data-participant-2="HistoryStore"><polygon fill="#181818" points="470.6743,357.6563,480.6743,361.6563,470.6743,365.6563,474.6743,361.6563" style="stroke:#181818;stroke-width:1;"/><line style="stroke:#181818;stroke-width:1;" x1="195.6509" x2="476.6743" y1="361.6563" y2="361.6563"/><text fill="#000000" font-family="sans-serif" font-size="13" lengthAdjust="spacing" textLength="130" x="202.6509" y="356.5903">&#31227;&#38500;&#24050;&#25764;&#38144;&#30340;&#21382;&#21490;&#35760;&#24405;</text></g><g class="message" data-participant-1="HistoryStore" data-participant-2="BranchStore"><polygon fill="#181818" points="700.9502,386.7891,710.9502,390.7891,700.9502,394.7891,704.9502,390.7891" style="stroke:#181818;stroke-width:1;"/><line style="stroke:#181818;stroke-width:1;" x1="487.6743" x2="706.9502" y1="390.7891" y2="390.7891"/><text fill="#000000" font-family="sans-serif" font-size="13" lengthAdjust="spacing" textLength="196.2759" x="494.6743" y="385.7231">(&#20869;&#37096;) &#21516;&#27493;&#20998;&#25903;&#28857;&#65292;&#31227;&#38500;&#26080;&#25928;&#32034;&#24341;</text></g><g class="message" data-participant-1="Actions" data-participant-2="BranchStore"><polygon fill="#181818" points="695.9502,415.9219,705.9502,419.9219,695.9502,423.9219,699.9502,419.9219" style="stroke:#181818;stroke-width:1;"/><line style="stroke:#181818;stroke-width:1;" x1="195.6509" x2="701.9502" y1="419.9219" y2="419.9219"/><text fill="#000000" font-family="sans-serif" font-size="13" lengthAdjust="spacing" textLength="117" x="202.6509" y="414.856">&#31227;&#38500;&#26368;&#21518;&#19968;&#20010;&#20998;&#25903;&#28857;</text></g><g class="message" data-participant-1="Actions" data-participant-2="WrongNumberStore"><polygon fill="#181818" points="935.6294,475.0547,945.6294,479.0547,935.6294,483.0547,939.6294,479.0547" style="stroke:#181818;stroke-width:1;"/><line style="stroke:#181818;stroke-width:1;" x1="190.6509" x2="941.6294" y1="479.0547" y2="479.0547"/><text fill="#000000" font-family="sans-serif" font-size="13" lengthAdjust="spacing" textLength="150.084" x="197.6509" y="473.9888">set(wrongNumber + 1)</text></g><!--SRC=[ZLFFJnD15BxlN_6ofpOAqMiF9dBHao5HuddPJkZYihEP6J3SYaYffZy8jXA162HLqKJQe0cbBVhFxCnkJ_uBJhi_cCNLC8V9pEHxxttlUzymYza8T3veykeUF_XP07xmNWowlDhZrOfeTVqN5xgc6IR31EPjOnqHpJK8iqpBDHm6-dsJMTYXitGDsGpfO528djAuaaLbYlNPPJh5F0olZ-M6qi15OZXcQHvR3gCnUcxwbW5UfOWy85On1Yv4zmpeSuATfKUhAuk8nEYdLqzXW1Ps23FtuYOA80NWsqFGvmpp6IDoqq7KNertJoUYM6i6Gqd3MdIOn2kK2n0qpddphJWiyvs6rozx_Q-9k92p3SfYD7BpLsdLhfKppAZqWbyjEJ6WCXJy7yTyrDQAA3E5oawLFwRd3Hi9gs3xkpTyxU-_v8qARvu5fpr-sORSf0fzWXUS8bPufcQfNhAOYZTrx_9GcYtuSA8oJINHR8nTuDqBqMrAiO9F6sAtCswL9Q4mNWEvb7vISoy0HIpdOdeRxkIdI0VB2iHQAZ7fxrw5rzjyQrCSZSJ6CU_KlVx0_pBGa5FyZqR-v-7uNOUVdoLCL6bk9COrK-HuPMkyUP87lbCJtpucslyUrS9YOkz8jAj_3pKjrRyy5-N8ybosnMvWc-iV9bHQ-Lbm2-xcrKnHy1y0]--></g></svg>