<svg xmlns="http://www.w3.org/2000/svg" xmlns:xlink="http://www.w3.org/1999/xlink" contentStyleType="text/css" data-diagram-type="SEQUENCE" height="1037px" preserveAspectRatio="none" style="width:841px;height:1037px;background:#FFFFFF;" version="1.1" viewBox="0 0 841 1037" width="841px" zoomAndPan="magnify"><title>&#24207;&#21015;&#22270;: &#25764;&#38144;&#19982;&#37325;&#20570;</title><defs/><g><text fill="#000000" font-family="sans-serif" font-size="14" font-weight="bold" lengthAdjust="spacing" textLength="122.4727" x="355.5264" y="27.9951">&#24207;&#21015;&#22270;: &#25764;&#38144;&#19982;&#37325;&#20570;</text><g><title>Actions.svelte</title><rect fill="#FFFFFF" height="216.7969" style="stroke:#181818;stroke-width:1;" width="10" x="154.9663" y="426.6563"/></g><g><title>Actions.svelte</title><rect fill="#FFFFFF" height="216.7969" style="stroke:#181818;stroke-width:1;" width="10" x="154.9663" y="718.7188"/></g><g><title>record.js</title><rect fill="#FFFFFF" height="122.3984" style="stroke:#181818;stroke-width:1;" width="10" x="289.3291" y="224.9922"/></g><g><title>record.js</title><rect fill="#FFFFFF" height="155.5313" style="stroke:#181818;stroke-width:1;" width="10" x="289.3291" y="455.7891"/></g><g><title>record.js</title><rect fill="#FFFFFF" height="155.5313" style="stroke:#181818;stroke-width:1;" width="10" x="289.3291" y="747.8516"/></g><g><title>userGrid.js</title><rect fill="#FFFFFF" height="154.5313" style="stroke:#181818;stroke-width:1;" width="10" x="520.1255" y="192.8594"/></g><g><title>Player</title><rect fill="#000000" fill-opacity="0.00000" height="837.9219" width="8" x="25.7827" y="118.5938"/><line style="stroke:#181818;stroke-width:0.5;stroke-dasharray:5.0,5.0;" x1="29" x2="29" y1="118.5938" y2="956.5156"/></g><g><title>Actions.svelte</title><rect fill="#000000" fill-opacity="0.00000" height="837.9219" width="8" x="155.9663" y="118.5938"/><line style="stroke:#181818;stroke-width:0.5;stroke-dasharray:5.0,5.0;" x1="159.9561" x2="159.9561" y1="118.5938" y2="956.5156"/></g><g><title>record.js</title><rect fill="#000000" fill-opacity="0.00000" height="837.9219" width="8" x="290.3291" y="118.5938"/><line style="stroke:#181818;stroke-width:0.5;stroke-dasharray:5.0,5.0;" x1="293.875" x2="293.875" y1="118.5938" y2="956.5156"/></g><g><title>userGrid.js</title><rect fill="#000000" fill-opacity="0.00000" height="837.9219" width="8" x="521.1255" y="118.5938"/><line style="stroke:#181818;stroke-width:0.5;stroke-dasharray:5.0,5.0;" x1="524.3501" x2="524.3501" y1="118.5938" y2="956.5156"/></g><g class="participant participant-head" data-participant="Player"><text fill="#000000" font-family="sans-serif" font-size="14" lengthAdjust="spacing" textLength="43.5654" x="5" y="115.292">Player</text><ellipse cx="29.7827" cy="50.7969" fill="#E2E2F0" rx="8" ry="8" style="stroke:#181818;stroke-width:0.5;"/><path d="M29.7827,58.7969 L29.7827,85.7969 M16.7827,66.7969 L42.7827,66.7969 M29.7827,85.7969 L16.7827,100.7969 M29.7827,85.7969 L42.7827,100.7969" fill="none" style="stroke:#181818;stroke-width:0.5;"/></g><g class="participant participant-tail" data-participant="Player"><text fill="#000000" font-family="sans-serif" font-size="14" lengthAdjust="spacing" textLength="43.5654" x="5" y="968.5107">Player</text><ellipse cx="29.7827" cy="980.3125" fill="#E2E2F0" rx="8" ry="8" style="stroke:#181818;stroke-width:0.5;"/><path d="M29.7827,988.3125 L29.7827,1015.3125 M16.7827,996.3125 L42.7827,996.3125 M29.7827,1015.3125 L16.7827,1030.3125 M29.7827,1015.3125 L42.7827,1030.3125" fill="none" style="stroke:#181818;stroke-width:0.5;"/></g><g class="participant participant-head" data-participant="Actions"><rect fill="#E2E2F0" height="30.2969" rx="2.5" ry="2.5" style="stroke:#181818;stroke-width:0.5;" width="112.0205" x="103.9561" y="87.2969"/><text fill="#000000" font-family="sans-serif" font-size="14" lengthAdjust="spacing" textLength="98.0205" x="110.9561" y="107.292">Actions.svelte</text></g><g class="participant participant-tail" data-participant="Actions"><rect fill="#E2E2F0" height="30.2969" rx="2.5" ry="2.5" style="stroke:#181818;stroke-width:0.5;" width="112.0205" x="103.9561" y="955.5156"/><text fill="#000000" font-family="sans-serif" font-size="14" lengthAdjust="spacing" textLength="98.0205" x="110.9561" y="975.5107">Actions.svelte</text></g><g class="participant participant-head" data-participant="RecordStore"><rect fill="#E2E2F0" height="30.2969" rx="2.5" ry="2.5" style="stroke:#181818;stroke-width:0.5;" width="74.9082" x="256.875" y="87.2969"/><text fill="#000000" font-family="sans-serif" font-size="14" lengthAdjust="spacing" textLength="60.9082" x="263.875" y="107.292">record.js</text></g><g class="participant participant-tail" data-participant="RecordStore"><rect fill="#E2E2F0" height="30.2969" rx="2.5" ry="2.5" style="stroke:#181818;stroke-width:0.5;" width="74.9082" x="256.875" y="955.5156"/><text fill="#000000" font-family="sans-serif" font-size="14" lengthAdjust="spacing" textLength="60.9082" x="263.875" y="975.5107">record.js</text></g><g class="participant participant-head" data-participant="UserGridStore"><rect fill="#E2E2F0" height="30.2969" rx="2.5" ry="2.5" style="stroke:#181818;stroke-width:0.5;" width="89.5508" x="480.3501" y="87.2969"/><text fill="#000000" font-family="sans-serif" font-size="14" lengthAdjust="spacing" textLength="75.5508" x="487.3501" y="107.292">userGrid.js</text></g><g class="participant participant-tail" data-participant="UserGridStore"><rect fill="#E2E2F0" height="30.2969" rx="2.5" ry="2.5" style="stroke:#181818;stroke-width:0.5;" width="89.5508" x="480.3501" y="955.5156"/><text fill="#000000" font-family="sans-serif" font-size="14" lengthAdjust="spacing" textLength="75.5508" x="487.3501" y="975.5107">userGrid.js</text></g><g><title>Actions.svelte</title><rect fill="#FFFFFF" height="216.7969" style="stroke:#181818;stroke-width:1;" width="10" x="154.9663" y="426.6563"/></g><g><title>Actions.svelte</title><rect fill="#FFFFFF" height="216.7969" style="stroke:#181818;stroke-width:1;" width="10" x="154.9663" y="718.7188"/></g><g><title>record.js</title><rect fill="#FFFFFF" height="122.3984" style="stroke:#181818;stroke-width:1;" width="10" x="289.3291" y="224.9922"/></g><g><title>record.js</title><rect fill="#FFFFFF" height="155.5313" style="stroke:#181818;stroke-width:1;" width="10" x="289.3291" y="455.7891"/></g><g><title>record.js</title><rect fill="#FFFFFF" height="155.5313" style="stroke:#181818;stroke-width:1;" width="10" x="289.3291" y="747.8516"/></g><g><title>userGrid.js</title><rect fill="#FFFFFF" height="154.5313" style="stroke:#181818;stroke-width:1;" width="10" x="520.1255" y="192.8594"/></g><rect fill="#EEEEEE" height="3" style="stroke:#EEEEEE;stroke-width:1;" width="834.5254" x="0" y="149.1602"/><line style="stroke:#000000;stroke-width:1;" x1="0" x2="834.5254" y1="149.1602" y2="149.1602"/><line style="stroke:#000000;stroke-width:1;" x1="0" x2="834.5254" y1="152.1602" y2="152.1602"/><rect fill="#EEEEEE" height="23.1328" style="stroke:#000000;stroke-width:2;" width="135.5259" x="349.4998" y="138.5938"/><text fill="#000000" font-family="sans-serif" font-size="13" font-weight="bold" lengthAdjust="spacing" textLength="117" x="355.4998" y="154.6606">&#29992;&#25143;&#25805;&#20316;&#65292;&#35760;&#24405;&#21382;&#21490;</text><g class="message" data-participant-1="Player" data-participant-2="UserGridStore"><polygon fill="#181818" points="508.1255,188.8594,518.1255,192.8594,508.1255,196.8594,512.1255,192.8594" style="stroke:#181818;stroke-width:1;"/><line style="stroke:#181818;stroke-width:1;" x1="29.7827" x2="514.1255" y1="192.8594" y2="192.8594"/><text fill="#000000" font-family="sans-serif" font-size="13" lengthAdjust="spacing" textLength="52" x="36.7827" y="187.7935">&#22635;&#20837;&#25968;&#23383;</text></g><g class="message" data-participant-1="UserGridStore" data-participant-2="RecordStore"><polygon fill="#181818" points="310.3291,220.9922,300.3291,224.9922,310.3291,228.9922,306.3291,224.9922" style="stroke:#181818;stroke-width:1;"/><line style="stroke:#181818;stroke-width:1;" x1="304.3291" x2="519.1255" y1="224.9922" y2="224.9922"/><text fill="#000000" font-family="sans-serif" font-size="13" lengthAdjust="spacing" textLength="66.3647" x="316.3291" y="219.9263">do(action)</text></g><path d="M535,205.8594 L535,230.8594 L829,230.8594 L829,215.8594 L819,205.8594 L535,205.8594" fill="#FEFFDD" style="stroke:#181818;stroke-width:0.5;"/><path d="M819,205.8594 L819,215.8594 L829,215.8594 L819,205.8594" fill="#FEFFDD" style="stroke:#181818;stroke-width:0.5;"/><text fill="#000000" font-family="sans-serif" font-size="13" lengthAdjust="spacing" textLength="273.3999" x="541" y="222.9263">action = [{row, col, oldValue, newValue}]</text><g class="message" data-participant-1="RecordStore" data-participant-2="RecordStore"><line style="stroke:#181818;stroke-width:1;" x1="299.3291" x2="341.3291" y1="257.125" y2="257.125"/><line style="stroke:#181818;stroke-width:1;" x1="341.3291" x2="341.3291" y1="257.125" y2="270.125"/><line style="stroke:#181818;stroke-width:1;" x1="300.3291" x2="341.3291" y1="270.125" y2="270.125"/><polygon fill="#181818" points="310.3291,266.125,300.3291,270.125,310.3291,274.125,306.3291,270.125" style="stroke:#181818;stroke-width:1;"/><text fill="#000000" font-family="sans-serif" font-size="13" lengthAdjust="spacing" textLength="154.4702" x="306.3291" y="252.0591">undoStack.push(action)</text></g><g class="message" data-participant-1="RecordStore" data-participant-2="RecordStore"><line style="stroke:#181818;stroke-width:1;" x1="299.3291" x2="341.3291" y1="299.2578" y2="299.2578"/><line style="stroke:#181818;stroke-width:1;" x1="341.3291" x2="341.3291" y1="299.2578" y2="312.2578"/><line style="stroke:#181818;stroke-width:1;" x1="300.3291" x2="341.3291" y1="312.2578" y2="312.2578"/><polygon fill="#181818" points="310.3291,308.2578,300.3291,312.2578,310.3291,316.2578,306.3291,312.2578" style="stroke:#181818;stroke-width:1;"/><text fill="#000000" font-family="sans-serif" font-size="13" lengthAdjust="spacing" textLength="94.8403" x="306.3291" y="294.1919">redoStack = []</text></g><g class="message" data-participant-1="RecordStore" data-participant-2="RecordStore"><line style="stroke:#181818;stroke-width:1;" x1="299.3291" x2="341.3291" y1="346.3906" y2="346.3906"/><line style="stroke:#181818;stroke-width:1;" x1="341.3291" x2="341.3291" y1="346.3906" y2="359.3906"/><line style="stroke:#181818;stroke-width:1;" x1="294.3291" x2="341.3291" y1="359.3906" y2="359.3906"/><polygon fill="#181818" points="304.3291,355.3906,294.3291,359.3906,304.3291,363.3906,300.3291,359.3906" style="stroke:#181818;stroke-width:1;"/><text fill="#000000" font-family="sans-serif" font-size="13" lengthAdjust="spacing" textLength="137.9028" x="306.3291" y="341.3247">updateAbilityStates()</text></g><rect fill="#EEEEEE" height="3" style="stroke:#EEEEEE;stroke-width:1;" width="834.5254" x="0" y="382.957"/><line style="stroke:#000000;stroke-width:1;" x1="0" x2="834.5254" y1="382.957" y2="382.957"/><line style="stroke:#000000;stroke-width:1;" x1="0" x2="834.5254" y1="385.957" y2="385.957"/><rect fill="#EEEEEE" height="23.1328" style="stroke:#000000;stroke-width:2;" width="96.5259" x="368.9998" y="372.3906"/><text fill="#000000" font-family="sans-serif" font-size="13" font-weight="bold" lengthAdjust="spacing" textLength="78" x="374.9998" y="388.4575">&#29609;&#23478;&#35831;&#27714;&#25764;&#38144;</text><g class="message" data-participant-1="Player" data-participant-2="Actions"><polygon fill="#181818" points="142.9663,422.6563,152.9663,426.6563,142.9663,430.6563,146.9663,426.6563" style="stroke:#181818;stroke-width:1;"/><line style="stroke:#181818;stroke-width:1;" x1="29.7827" x2="148.9663" y1="426.6563" y2="426.6563"/><text fill="#000000" font-family="sans-serif" font-size="13" lengthAdjust="spacing" textLength="106.1836" x="36.7827" y="421.5903">&#28857;&#20987; "Undo" &#25353;&#38062;</text></g><g class="message" data-participant-1="Actions" data-participant-2="RecordStore"><polygon fill="#181818" points="277.3291,451.7891,287.3291,455.7891,277.3291,459.7891,281.3291,455.7891" style="stroke:#181818;stroke-width:1;"/><line style="stroke:#181818;stroke-width:1;" x1="164.9663" x2="283.3291" y1="455.7891" y2="455.7891"/><text fill="#000000" font-family="sans-serif" font-size="13" lengthAdjust="spacing" textLength="42.8276" x="171.9663" y="450.7231">undo()</text></g><g class="message" data-participant-1="RecordStore" data-participant-2="RecordStore"><line style="stroke:#181818;stroke-width:1;" x1="299.3291" x2="341.3291" y1="484.9219" y2="484.9219"/><line style="stroke:#181818;stroke-width:1;" x1="341.3291" x2="341.3291" y1="484.9219" y2="497.9219"/><line style="stroke:#181818;stroke-width:1;" x1="300.3291" x2="341.3291" y1="497.9219" y2="497.9219"/><polygon fill="#181818" points="310.3291,493.9219,300.3291,497.9219,310.3291,501.9219,306.3291,497.9219" style="stroke:#181818;stroke-width:1;"/><text fill="#000000" font-family="sans-serif" font-size="13" lengthAdjust="spacing" textLength="196.7964" x="306.3291" y="479.856">prevAction = undoStack.pop()</text></g><g class="message" data-participant-1="RecordStore" data-participant-2="RecordStore"><line style="stroke:#181818;stroke-width:1;" x1="299.3291" x2="341.3291" y1="527.0547" y2="527.0547"/><line style="stroke:#181818;stroke-width:1;" x1="341.3291" x2="341.3291" y1="527.0547" y2="540.0547"/><line style="stroke:#181818;stroke-width:1;" x1="300.3291" x2="341.3291" y1="540.0547" y2="540.0547"/><polygon fill="#181818" points="310.3291,536.0547,300.3291,540.0547,310.3291,544.0547,306.3291,540.0547" style="stroke:#181818;stroke-width:1;"/><text fill="#000000" font-family="sans-serif" font-size="13" lengthAdjust="spacing" textLength="181.5493" x="306.3291" y="521.9888">redoStack.push(prevAction)</text></g><g class="message" data-participant-1="RecordStore" data-participant-2="RecordStore"><line style="stroke:#181818;stroke-width:1;" x1="299.3291" x2="341.3291" y1="569.1875" y2="569.1875"/><line style="stroke:#181818;stroke-width:1;" x1="341.3291" x2="341.3291" y1="569.1875" y2="582.1875"/><line style="stroke:#181818;stroke-width:1;" x1="300.3291" x2="341.3291" y1="582.1875" y2="582.1875"/><polygon fill="#181818" points="310.3291,578.1875,300.3291,582.1875,310.3291,586.1875,306.3291,582.1875" style="stroke:#181818;stroke-width:1;"/><text fill="#000000" font-family="sans-serif" font-size="13" lengthAdjust="spacing" textLength="137.9028" x="306.3291" y="564.1216">updateAbilityStates()</text></g><g class="message" data-participant-1="RecordStore" data-participant-2="Actions"><polygon fill="#181818" points="175.9663,607.3203,165.9663,611.3203,175.9663,615.3203,171.9663,611.3203" style="stroke:#181818;stroke-width:1;"/><line style="stroke:#181818;stroke-width:1;stroke-dasharray:2.0,2.0;" x1="169.9663" x2="293.3291" y1="611.3203" y2="611.3203"/><text fill="#000000" font-family="sans-serif" font-size="13" lengthAdjust="spacing" textLength="100.3628" x="181.9663" y="606.2544">&#36820;&#22238; prevAction</text></g><g class="message" data-participant-1="Actions" data-participant-2="UserGridStore"><polygon fill="#181818" points="513.1255,639.4531,523.1255,643.4531,513.1255,647.4531,517.1255,643.4531" style="stroke:#181818;stroke-width:1;"/><line style="stroke:#181818;stroke-width:1;" x1="159.9663" x2="519.1255" y1="643.4531" y2="643.4531"/><text fill="#000000" font-family="sans-serif" font-size="13" lengthAdjust="spacing" textLength="192.1436" x="166.9663" y="638.3872">set(pos, prevAction.oldValue)</text></g><path d="M530,624.3203 L530,649.3203 L681,649.3203 L681,634.3203 L671,624.3203 L530,624.3203" fill="#FEFFDD" style="stroke:#181818;stroke-width:0.5;"/><path d="M671,624.3203 L671,634.3203 L681,634.3203 L671,624.3203" fill="#FEFFDD" style="stroke:#181818;stroke-width:0.5;"/><text fill="#000000" font-family="sans-serif" font-size="13" lengthAdjust="spacing" textLength="130" x="536" y="641.3872">&#26681;&#25454;&#25764;&#38144;&#20449;&#24687;&#24674;&#22797;&#26827;&#30424;</text><rect fill="#EEEEEE" height="3" style="stroke:#EEEEEE;stroke-width:1;" width="834.5254" x="0" y="675.0195"/><line style="stroke:#000000;stroke-width:1;" x1="0" x2="834.5254" y1="675.0195" y2="675.0195"/><line style="stroke:#000000;stroke-width:1;" x1="0" x2="834.5254" y1="678.0195" y2="678.0195"/><rect fill="#EEEEEE" height="23.1328" style="stroke:#000000;stroke-width:2;" width="96.5259" x="368.9998" y="664.4531"/><text fill="#000000" font-family="sans-serif" font-size="13" font-weight="bold" lengthAdjust="spacing" textLength="78" x="374.9998" y="680.52">&#29609;&#23478;&#35831;&#27714;&#37325;&#20570;</text><g class="message" data-participant-1="Player" data-participant-2="Actions"><polygon fill="#181818" points="142.9663,714.7188,152.9663,718.7188,142.9663,722.7188,146.9663,718.7188" style="stroke:#181818;stroke-width:1;"/><line style="stroke:#181818;stroke-width:1;" x1="29.7827" x2="148.9663" y1="718.7188" y2="718.7188"/><text fill="#000000" font-family="sans-serif" font-size="13" lengthAdjust="spacing" textLength="105.46" x="36.7827" y="713.6528">&#28857;&#20987; "Redo" &#25353;&#38062;</text></g><g class="message" data-participant-1="Actions" data-participant-2="RecordStore"><polygon fill="#181818" points="277.3291,743.8516,287.3291,747.8516,277.3291,751.8516,281.3291,747.8516" style="stroke:#181818;stroke-width:1;"/><line style="stroke:#181818;stroke-width:1;" x1="164.9663" x2="283.3291" y1="747.8516" y2="747.8516"/><text fill="#000000" font-family="sans-serif" font-size="13" lengthAdjust="spacing" textLength="39.6919" x="171.9663" y="742.7856">redo()</text></g><g class="message" data-participant-1="RecordStore" data-participant-2="RecordStore"><line style="stroke:#181818;stroke-width:1;" x1="299.3291" x2="341.3291" y1="776.9844" y2="776.9844"/><line style="stroke:#181818;stroke-width:1;" x1="341.3291" x2="341.3291" y1="776.9844" y2="789.9844"/><line style="stroke:#181818;stroke-width:1;" x1="300.3291" x2="341.3291" y1="789.9844" y2="789.9844"/><polygon fill="#181818" points="310.3291,785.9844,300.3291,789.9844,310.3291,793.9844,306.3291,789.9844" style="stroke:#181818;stroke-width:1;"/><text fill="#000000" font-family="sans-serif" font-size="13" lengthAdjust="spacing" textLength="193.4004" x="306.3291" y="771.9185">nextAction = redoStack.pop()</text></g><g class="message" data-participant-1="RecordStore" data-participant-2="RecordStore"><line style="stroke:#181818;stroke-width:1;" x1="299.3291" x2="341.3291" y1="819.1172" y2="819.1172"/><line style="stroke:#181818;stroke-width:1;" x1="341.3291" x2="341.3291" y1="819.1172" y2="832.1172"/><line style="stroke:#181818;stroke-width:1;" x1="300.3291" x2="341.3291" y1="832.1172" y2="832.1172"/><polygon fill="#181818" points="310.3291,828.1172,300.3291,832.1172,310.3291,836.1172,306.3291,832.1172" style="stroke:#181818;stroke-width:1;"/><text fill="#000000" font-family="sans-serif" font-size="13" lengthAdjust="spacing" textLength="184.4248" x="306.3291" y="814.0513">undoStack.push(nextAction)</text></g><g class="message" data-participant-1="RecordStore" data-participant-2="RecordStore"><line style="stroke:#181818;stroke-width:1;" x1="299.3291" x2="341.3291" y1="861.25" y2="861.25"/><line style="stroke:#181818;stroke-width:1;" x1="341.3291" x2="341.3291" y1="861.25" y2="874.25"/><line style="stroke:#181818;stroke-width:1;" x1="300.3291" x2="341.3291" y1="874.25" y2="874.25"/><polygon fill="#181818" points="310.3291,870.25,300.3291,874.25,310.3291,878.25,306.3291,874.25" style="stroke:#181818;stroke-width:1;"/><text fill="#000000" font-family="sans-serif" font-size="13" lengthAdjust="spacing" textLength="137.9028" x="306.3291" y="856.1841">updateAbilityStates()</text></g><g class="message" data-participant-1="RecordStore" data-participant-2="Actions"><polygon fill="#181818" points="175.9663,899.3828,165.9663,903.3828,175.9663,907.3828,171.9663,903.3828" style="stroke:#181818;stroke-width:1;"/><line style="stroke:#181818;stroke-width:1;stroke-dasharray:2.0,2.0;" x1="169.9663" x2="293.3291" y1="903.3828" y2="903.3828"/><text fill="#000000" font-family="sans-serif" font-size="13" lengthAdjust="spacing" textLength="100.1025" x="181.9663" y="898.3169">&#36820;&#22238; nextAction</text></g><g class="message" data-participant-1="Actions" data-participant-2="UserGridStore"><polygon fill="#181818" points="513.1255,931.5156,523.1255,935.5156,513.1255,939.5156,517.1255,935.5156" style="stroke:#181818;stroke-width:1;"/><line style="stroke:#181818;stroke-width:1;" x1="159.9663" x2="519.1255" y1="935.5156" y2="935.5156"/><text fill="#000000" font-family="sans-serif" font-size="13" lengthAdjust="spacing" textLength="198.9355" x="166.9663" y="930.4497">set(pos, nextAction.newValue)</text></g><path d="M530,916.3828 L530,941.3828 L681,941.3828 L681,926.3828 L671,916.3828 L530,916.3828" fill="#FEFFDD" style="stroke:#181818;stroke-width:0.5;"/><path d="M671,916.3828 L671,926.3828 L681,926.3828 L671,916.3828" fill="#FEFFDD" style="stroke:#181818;stroke-width:0.5;"/><text fill="#000000" font-family="sans-serif" font-size="13" lengthAdjust="spacing" textLength="130" x="536" y="933.4497">&#26681;&#25454;&#37325;&#20570;&#20449;&#24687;&#24674;&#22797;&#26827;&#30424;</text><!--SRC=[jPJFRzCm5CVl-IkUScgbaZyWKf1wuefMZGlQmIGMCqHnPBiT4qAYas13h9qqEWsj4sA_f254DpWm1epzCxFRdlWNI9kaSKhPHX6dsDPxt_Vy_Jn74E5ZCENNDRcoATi_R53h-_tMquilpVvoGzQtJCD0hg0CRlje4JCZH4mGbuGe462MNK5em2rUmxx09Y0EoL4-Zc6NCizwm8SXCyDT9HB5-R0gn-mM8wF0sMGVXngE0ztMeLevKQyQ5sVRFx-lzZh7ycn3Df_BjK_WE4RS8zoucK-rGUwybyyErCQn_B0vk0-f8O77z7ExWORMfmqUBQ3XrOf6GADSHkxF2nlYCt3WxcD65qhWKhy4rFVk8B-AIn3WXU7goLnMLR- -jlwjOZNmQ4KWzw4LLldygFfbAGmdAOE6vYvN3xsecV8zuXEn6EK8p0j5myCJszIE9p1flfETpxsZ4_LnAHwUF8fa8cpeBftAvMzWpaONCq6jlkYlTp9Rqi59lXFjY3hyQnj3Xclbb9BcAGqBrpGpzZ_JAKvXR2v3DwLttfBjDrgNVsAW6pCstHoBGaXvILEnqXdCZwjwUweQdUI9d- -e-f6gxyhzXjfxsMs_rakdECO9nt-5AmZFu6a83moVXd207uaHOOtQbOJ7NbYcypy8P-h_GZXJiT9_ooJ2CQLh4Vu5]--></g></svg>