<svg xmlns="http://www.w3.org/2000/svg" xmlns:xlink="http://www.w3.org/1999/xlink" contentStyleType="text/css" data-diagram-type="SEQUENCE" height="719px" preserveAspectRatio="none" style="width:832px;height:719px;background:#FFFFFF;" version="1.1" viewBox="0 0 832 719" width="832px" zoomAndPan="magnify"><title>&#24207;&#21015;&#22270;: &#20174; URL &#23548;&#20837;&#25968;&#29420;</title><defs/><g><text fill="#000000" font-family="sans-serif" font-size="14" font-weight="bold" lengthAdjust="spacing" textLength="163.29" x="335.615" y="27.9951">&#24207;&#21015;&#22270;: &#20174; URL &#23548;&#20837;&#25968;&#29420;</text><g><title>Prompt.svelte</title><rect fill="#FFFFFF" height="264.9297" style="stroke:#181818;stroke-width:1;" width="10" x="249.5068" y="149.7266"/></g><g><title>game.js</title><rect fill="#FFFFFF" height="357" style="stroke:#181818;stroke-width:1;" width="10" x="395.8813" y="178.8594"/></g><g><title>game.js</title><rect fill="#FFFFFF" height="198.6641" style="stroke:#181818;stroke-width:1;" width="10" x="400.8813" y="215.9922"/></g><rect fill="none" height="344" style="stroke:#000000;stroke-width:1.5;" width="822.52" x="3" y="278.125"/><g><title>Player</title><rect fill="#000000" fill-opacity="0.00000" height="520.5313" width="8" x="105" y="118.5938"/><line style="stroke:#181818;stroke-width:0.5;stroke-dasharray:5.0,5.0;" x1="108.2173" x2="108.2173" y1="118.5938" y2="639.125"/></g><g><title>Prompt.svelte</title><rect fill="#000000" fill-opacity="0.00000" height="520.5313" width="8" x="250.5068" y="118.5938"/><line style="stroke:#181818;stroke-width:0.5;stroke-dasharray:5.0,5.0;" x1="253.8008" x2="253.8008" y1="118.5938" y2="639.125"/></g><g><title>game.js</title><rect fill="#000000" fill-opacity="0.00000" height="520.5313" width="8" x="396.8813" y="118.5938"/><line style="stroke:#181818;stroke-width:0.5;stroke-dasharray:5.0,5.0;" x1="400.2061" x2="400.2061" y1="118.5938" y2="639.125"/></g><g><title>grid.js</title><rect fill="#000000" fill-opacity="0.00000" height="520.5313" width="8" x="680.4419" y="118.5938"/><line style="stroke:#181818;stroke-width:0.5;stroke-dasharray:5.0,5.0;" x1="683.9155" x2="683.9155" y1="118.5938" y2="639.125"/></g><g><title>message.js</title><rect fill="#000000" fill-opacity="0.00000" height="520.5313" width="8" x="765.2441" y="118.5938"/><line style="stroke:#181818;stroke-width:0.5;stroke-dasharray:5.0,5.0;" x1="768.9683" x2="768.9683" y1="118.5938" y2="639.125"/></g><g class="participant participant-head" data-participant="Player"><text fill="#000000" font-family="sans-serif" font-size="14" lengthAdjust="spacing" textLength="43.5654" x="84.2173" y="115.292">Player</text><ellipse cx="109" cy="50.7969" fill="#E2E2F0" rx="8" ry="8" style="stroke:#181818;stroke-width:0.5;"/><path d="M109,58.7969 L109,85.7969 M96,66.7969 L122,66.7969 M109,85.7969 L96,100.7969 M109,85.7969 L122,100.7969" fill="none" style="stroke:#181818;stroke-width:0.5;"/></g><g class="participant participant-tail" data-participant="Player"><text fill="#000000" font-family="sans-serif" font-size="14" lengthAdjust="spacing" textLength="43.5654" x="84.2173" y="651.1201">Player</text><ellipse cx="109" cy="662.9219" fill="#E2E2F0" rx="8" ry="8" style="stroke:#181818;stroke-width:0.5;"/><path d="M109,670.9219 L109,697.9219 M96,678.9219 L122,678.9219 M109,697.9219 L96,712.9219 M109,697.9219 L122,712.9219" fill="none" style="stroke:#181818;stroke-width:0.5;"/></g><g class="participant participant-head" data-participant="PromptModal"><rect fill="#E2E2F0" height="30.2969" rx="2.5" ry="2.5" style="stroke:#181818;stroke-width:0.5;" width="111.4121" x="198.8008" y="87.2969"/><text fill="#000000" font-family="sans-serif" font-size="14" lengthAdjust="spacing" textLength="97.4121" x="205.8008" y="107.292">Prompt.svelte</text></g><g class="participant participant-tail" data-participant="PromptModal"><rect fill="#E2E2F0" height="30.2969" rx="2.5" ry="2.5" style="stroke:#181818;stroke-width:0.5;" width="111.4121" x="198.8008" y="638.125"/><text fill="#000000" font-family="sans-serif" font-size="14" lengthAdjust="spacing" textLength="97.4121" x="205.8008" y="658.1201">Prompt.svelte</text></g><g class="participant participant-head" data-participant="Game"><rect fill="#E2E2F0" height="30.2969" rx="2.5" ry="2.5" style="stroke:#181818;stroke-width:0.5;" width="69.3506" x="366.2061" y="87.2969"/><text fill="#000000" font-family="sans-serif" font-size="14" lengthAdjust="spacing" textLength="55.3506" x="373.2061" y="107.292">game.js</text></g><g class="participant participant-tail" data-participant="Game"><rect fill="#E2E2F0" height="30.2969" rx="2.5" ry="2.5" style="stroke:#181818;stroke-width:0.5;" width="69.3506" x="366.2061" y="638.125"/><text fill="#000000" font-family="sans-serif" font-size="14" lengthAdjust="spacing" textLength="55.3506" x="373.2061" y="658.1201">game.js</text></g><g class="participant participant-head" data-participant="GridStore"><rect fill="#E2E2F0" height="30.2969" rx="2.5" ry="2.5" style="stroke:#181818;stroke-width:0.5;" width="57.0527" x="655.9155" y="87.2969"/><text fill="#000000" font-family="sans-serif" font-size="14" lengthAdjust="spacing" textLength="43.0527" x="662.9155" y="107.292">grid.js</text></g><g class="participant participant-tail" data-participant="GridStore"><rect fill="#E2E2F0" height="30.2969" rx="2.5" ry="2.5" style="stroke:#181818;stroke-width:0.5;" width="57.0527" x="655.9155" y="638.125"/><text fill="#000000" font-family="sans-serif" font-size="14" lengthAdjust="spacing" textLength="43.0527" x="662.9155" y="658.1201">grid.js</text></g><g class="participant participant-head" data-participant="MessageStore"><rect fill="#E2E2F0" height="30.2969" rx="2.5" ry="2.5" style="stroke:#181818;stroke-width:0.5;" width="92.5518" x="722.9683" y="87.2969"/><text fill="#000000" font-family="sans-serif" font-size="14" lengthAdjust="spacing" textLength="78.5518" x="729.9683" y="107.292">message.js</text></g><g class="participant participant-tail" data-participant="MessageStore"><rect fill="#E2E2F0" height="30.2969" rx="2.5" ry="2.5" style="stroke:#181818;stroke-width:0.5;" width="92.5518" x="722.9683" y="638.125"/><text fill="#000000" font-family="sans-serif" font-size="14" lengthAdjust="spacing" textLength="78.5518" x="729.9683" y="658.1201">message.js</text></g><g><title>Prompt.svelte</title><rect fill="#FFFFFF" height="264.9297" style="stroke:#181818;stroke-width:1;" width="10" x="249.5068" y="149.7266"/></g><g><title>game.js</title><rect fill="#FFFFFF" height="357" style="stroke:#181818;stroke-width:1;" width="10" x="395.8813" y="178.8594"/></g><g><title>game.js</title><rect fill="#FFFFFF" height="198.6641" style="stroke:#181818;stroke-width:1;" width="10" x="400.8813" y="215.9922"/></g><g class="message" data-participant-1="Player" data-participant-2="PromptModal"><polygon fill="#181818" points="237.5068,145.7266,247.5068,149.7266,237.5068,153.7266,241.5068,149.7266" style="stroke:#181818;stroke-width:1;"/><line style="stroke:#181818;stroke-width:1;" x1="109" x2="243.5068" y1="149.7266" y2="149.7266"/><text fill="#000000" font-family="sans-serif" font-size="13" lengthAdjust="spacing" textLength="121.5068" x="116" y="144.6606">&#31896;&#36148;URL&#24182;&#28857;&#20987;"OK"</text></g><g class="message" data-participant-1="PromptModal" data-participant-2="Game"><polygon fill="#181818" points="383.8813,174.8594,393.8813,178.8594,383.8813,182.8594,387.8813,178.8594" style="stroke:#181818;stroke-width:1;"/><line style="stroke:#181818;stroke-width:1;" x1="259.5068" x2="389.8813" y1="178.8594" y2="178.8594"/><text fill="#000000" font-family="sans-serif" font-size="13" lengthAdjust="spacing" textLength="117.3745" x="266.5068" y="173.7935">startByImport(url)</text></g><g class="message" data-participant-1="Game" data-participant-2="Game"><line style="stroke:#181818;stroke-width:1;" x1="405.8813" x2="452.8813" y1="202.9922" y2="202.9922"/><line style="stroke:#181818;stroke-width:1;" x1="452.8813" x2="452.8813" y1="202.9922" y2="215.9922"/><line style="stroke:#181818;stroke-width:1;" x1="411.8813" x2="452.8813" y1="215.9922" y2="215.9922"/><polygon fill="#181818" points="421.8813,211.9922,411.8813,215.9922,421.8813,219.9922,417.8813,215.9922" style="stroke:#181818;stroke-width:1;"/><text fill="#000000" font-family="sans-serif" font-size="13" lengthAdjust="spacing" textLength="164.0488" x="417.8813" y="197.9263">parseSudokuFromUrl(url)</text></g><g class="message" data-participant-1="Game" data-participant-2="Game"><line style="stroke:#181818;stroke-width:1;" x1="410.8813" x2="452.8813" y1="250.125" y2="250.125"/><line style="stroke:#181818;stroke-width:1;" x1="452.8813" x2="452.8813" y1="250.125" y2="263.125"/><line style="stroke:#181818;stroke-width:1;" x1="411.8813" x2="452.8813" y1="263.125" y2="263.125"/><polygon fill="#181818" points="421.8813,259.125,411.8813,263.125,421.8813,267.125,417.8813,263.125" style="stroke:#181818;stroke-width:1;"/><text fill="#000000" font-family="sans-serif" font-size="13" lengthAdjust="spacing" textLength="239.5605" x="417.8813" y="245.0591">new URL(url).searchParams.get('bd')</text></g><path d="M3,278.125 L67.4429,278.125 L67.4429,285.2578 L57.4429,295.2578 L3,295.2578 L3,278.125" fill="#EEEEEE" style="stroke:#000000;stroke-width:1.5;"/><rect fill="none" height="344" style="stroke:#000000;stroke-width:1.5;" width="822.52" x="3" y="278.125"/><text fill="#000000" font-family="sans-serif" font-size="13" font-weight="bold" lengthAdjust="spacing" textLength="19.4429" x="18" y="291.1919">alt</text><text fill="#000000" font-family="sans-serif" font-size="11" font-weight="bold" lengthAdjust="spacing" textLength="123.4385" x="82.4429" y="290.3354">[URL &#25110; 'bd' &#21442;&#25968;&#26080;&#25928;]</text><g class="message" data-participant-1="Game" data-participant-2="Game"><line style="stroke:#181818;stroke-width:1;stroke-dasharray:2.0,2.0;" x1="410.8813" x2="452.8813" y1="316.3906" y2="316.3906"/><line style="stroke:#181818;stroke-width:1;stroke-dasharray:2.0,2.0;" x1="452.8813" x2="452.8813" y1="316.3906" y2="329.3906"/><line style="stroke:#181818;stroke-width:1;stroke-dasharray:2.0,2.0;" x1="411.8813" x2="452.8813" y1="329.3906" y2="329.3906"/><polygon fill="#181818" points="421.8813,325.3906,411.8813,329.3906,421.8813,333.3906,417.8813,329.3906" style="stroke:#181818;stroke-width:1;"/><text fill="#000000" font-family="sans-serif" font-size="13" lengthAdjust="spacing" textLength="52" x="417.8813" y="311.3247">&#25243;&#20986;&#38169;&#35823;</text></g><g class="message" data-participant-1="Game" data-participant-2="Game"><line style="stroke:#181818;stroke-width:1;stroke-dasharray:2.0,2.0;" x1="410.8813" x2="452.8813" y1="358.5234" y2="358.5234"/><line style="stroke:#181818;stroke-width:1;stroke-dasharray:2.0,2.0;" x1="452.8813" x2="452.8813" y1="358.5234" y2="371.5234"/><line style="stroke:#181818;stroke-width:1;stroke-dasharray:2.0,2.0;" x1="411.8813" x2="452.8813" y1="371.5234" y2="371.5234"/><polygon fill="#181818" points="421.8813,367.5234,411.8813,371.5234,421.8813,375.5234,417.8813,371.5234" style="stroke:#181818;stroke-width:1;"/><text fill="#000000" font-family="sans-serif" font-size="13" lengthAdjust="spacing" textLength="52" x="417.8813" y="353.4575">&#25429;&#33719;&#38169;&#35823;</text></g><g class="message" data-participant-1="Game" data-participant-2="MessageStore"><polygon fill="#181818" points="757.2441,396.6563,767.2441,400.6563,757.2441,404.6563,761.2441,400.6563" style="stroke:#181818;stroke-width:1;"/><line style="stroke:#181818;stroke-width:1;" x1="410.8813" x2="763.2441" y1="400.6563" y2="400.6563"/><text fill="#000000" font-family="sans-serif" font-size="13" lengthAdjust="spacing" textLength="93.9707" x="417.8813" y="395.5903">set("&#23548;&#20837;&#22833;&#36133;")</text></g><g class="message" data-participant-1="Game" data-participant-2="PromptModal"><polygon fill="#181818" points="265.5068,410.6563,255.5068,414.6563,265.5068,418.6563,261.5068,414.6563" style="stroke:#181818;stroke-width:1;"/><line style="stroke:#181818;stroke-width:1;stroke-dasharray:2.0,2.0;" x1="259.5068" x2="394.8813" y1="414.6563" y2="414.6563"/></g><g class="message" data-participant-1="Player" data-participant-2="Player"><polygon fill="#181818" points="97,439.7891,107,443.7891,97,447.7891,101,443.7891" style="stroke:#181818;stroke-width:1;"/><line style="stroke:#181818;stroke-width:1;" x1="0" x2="103" y1="443.7891" y2="443.7891"/><text fill="#000000" font-family="sans-serif" font-size="13" lengthAdjust="spacing" textLength="78" x="7" y="438.7231">&#26174;&#31034;&#38169;&#35823;&#28040;&#24687;</text></g><line style="stroke:#000000;stroke-width:1;stroke-dasharray:2.0,2.0;" x1="3" x2="825.52" y1="452.7891" y2="452.7891"/><text fill="#000000" font-family="sans-serif" font-size="11" font-weight="bold" lengthAdjust="spacing" textLength="80.3677" x="8" y="462.9995">['bd' &#21442;&#25968;&#26377;&#25928;]</text><g class="message" data-participant-1="Game" data-participant-2="Game"><line style="stroke:#181818;stroke-width:1;" x1="405.8813" x2="447.8813" y1="487.7266" y2="487.7266"/><line style="stroke:#181818;stroke-width:1;" x1="447.8813" x2="447.8813" y1="487.7266" y2="500.7266"/><line style="stroke:#181818;stroke-width:1;" x1="406.8813" x2="447.8813" y1="500.7266" y2="500.7266"/><polygon fill="#181818" points="416.8813,496.7266,406.8813,500.7266,416.8813,504.7266,412.8813,500.7266" style="stroke:#181818;stroke-width:1;"/><text fill="#000000" font-family="sans-serif" font-size="13" lengthAdjust="spacing" textLength="188.5444" x="412.8813" y="482.6606">&#35299;&#26512;&#23383;&#31526;&#20018;&#20026; 9x9 &#25968;&#32452; (board)</text></g><g class="message" data-participant-1="Game" data-participant-2="Game"><line style="stroke:#181818;stroke-width:1;stroke-dasharray:2.0,2.0;" x1="405.8813" x2="447.8813" y1="534.8594" y2="534.8594"/><line style="stroke:#181818;stroke-width:1;stroke-dasharray:2.0,2.0;" x1="447.8813" x2="447.8813" y1="534.8594" y2="547.8594"/><line style="stroke:#181818;stroke-width:1;stroke-dasharray:2.0,2.0;" x1="400.8813" x2="447.8813" y1="547.8594" y2="547.8594"/><polygon fill="#181818" points="410.8813,543.8594,400.8813,547.8594,410.8813,551.8594,406.8813,547.8594" style="stroke:#181818;stroke-width:1;"/><text fill="#000000" font-family="sans-serif" font-size="13" lengthAdjust="spacing" textLength="67.9009" x="412.8813" y="529.7935">&#36820;&#22238; board</text></g><g class="message" data-participant-1="Game" data-participant-2="GridStore"><polygon fill="#181818" points="672.4419,567.9922,682.4419,571.9922,672.4419,575.9922,676.4419,571.9922" style="stroke:#181818;stroke-width:1;"/><line style="stroke:#181818;stroke-width:1;" x1="400.8813" x2="678.4419" y1="571.9922" y2="571.9922"/><text fill="#000000" font-family="sans-serif" font-size="13" lengthAdjust="spacing" textLength="67.7803" x="407.8813" y="566.9263">set(board)</text></g><g class="message" data-participant-1="Game" data-participant-2="Game"><line style="stroke:#181818;stroke-width:1;" x1="400.8813" x2="442.8813" y1="606.125" y2="606.125"/><line style="stroke:#181818;stroke-width:1;" x1="442.8813" x2="442.8813" y1="606.125" y2="619.125"/><line style="stroke:#181818;stroke-width:1;" x1="395.8813" x2="442.8813" y1="619.125" y2="619.125"/><polygon fill="#181818" points="405.8813,615.125,395.8813,619.125,405.8813,623.125,401.8813,619.125" style="stroke:#181818;stroke-width:1;"/><text fill="#000000" font-family="sans-serif" font-size="13" lengthAdjust="spacing" textLength="173.6909" x="407.8813" y="601.0591">&#35843;&#29992; reset() &#37325;&#32622;&#20854;&#20182; stores</text></g><!--SRC=[bL9DJzj04BtxLunyINB0TtBWq0C8GTIeY5DFIxmAfdOSxMue70j52Q0G3la01Q5AGCi16egY598M_apMDl-2NHj2DeG3FbYxCs_UlZSpp68s1frtAxpKuCsx9FHxUx3uQHvuwn_VElDgL_xkXQvfACDS0caRhMEYvH5XLiRAenm3FKrS9yyCkefjXdL05A98oZMHhKApoC762Wr1C-8yaYMMESYAyu9uSGJYO4fHTi2HYguHK8l4mSJKi80a-DS7GRijBF7RZhznouiz_UESBWrPguXXHUtGMV98ZKcWJ4Zui3xhv5t2uWLY9rwAGnUQ_B_WXMAA5mgc-wKmBVWMYJskIAt9uQ-owo7Ge1YHp78Q4UHG8ujPFBPanaIzpSB9UAKwo0ZmoeQOZzVuuTLA6eWluXoGUZjDNkm-L0-3LcjilbmBzlw-oayfVHN-XG8zMWT- -YTed-a9bMsuWp9XOjNgI6mK_bbIXBCJaWxk_DCdoLwdv7rhQTYcMF5xjAtwVROJ_3hnZlVvPSE_-Dc_kUxVT65oRHBa2lU-Gtp9HSHCZEj3S5_bpMC80MyQK1zyNi-eEw-e1ynNctxr70YMg0Gy5Cl-_zzygzFlrSLQYNhwteRXdFa8]--></g></svg>